<?xml version="1.0" encoding="iso-8859-1"?>
<!-- Generator: Adobe Illustrator 19.0.0, SVG Export Plug-In . SVG Version: 6.00 Build 0)  -->
<svg version="1.1" id="Layer_1" xmlns="http://www.w3.org/2000/svg" xmlns:xlink="http://www.w3.org/1999/xlink" x="0px" y="0px"
	 viewBox="0 0 512 512" style="enable-background:new 0 0 512 512;" xml:space="preserve">
<path style="fill:#E5E5E5;" d="M256,0C114.616,0,0,114.616,0,256s114.616,256,256,256s256-114.616,256-256S397.384,0,256,0z"/>
<path style="fill:#F00000;" d="M380.368,397.632H131.632C107.632,397.632,88,378,88,354V199.064c0-24,19.632-43.632,43.632-43.632
	h248.736c24,0,43.632,19.632,43.632,43.632V354C424,378,404.368,397.632,380.368,397.632z"/>
<path d="M351.912,204.696h-21v-76.784c0-13.536-11-24.544-24.536-24.544H205.632c-13.536,0-24.536,11.016-24.536,24.544v76.784h-21
	v-76.784c0-25.112,20.424-45.544,45.536-45.544h100.744c25.112,0,45.536,20.44,45.536,45.544
	C351.912,127.912,351.912,204.696,351.912,204.696z"/>
<g>
	<path style="fill:#FFFFFF;" d="M157.896,340.616c4.536,0.832,11.168,1.024,17.392-0.848c6.704-2.016,9.408-5.856,8.144-10.08
		c-1.208-4.016-4.96-5.384-13.552-5.832c-11.848-0.504-20.624-4.336-23.448-13.72c-3.32-11.008,3.336-22.192,18.552-26.784
		c7.272-2.184,13.096-2.272,17.448-1.712l0.288,12.76c-2.96-0.472-8.104-0.888-14.416,1.008c-6.32,1.904-8.512,5.696-7.504,9.048
		c1.24,4.12,5.424,4.84,14.704,5.496c12.656,0.776,19.808,5.104,22.544,14.184c3.256,10.824-2.304,22.52-20.008,27.856
		c-7.376,2.216-15.224,2.496-19.472,1.576L157.896,340.616z"/>
	<path style="fill:#FFFFFF;" d="M192.296,272.512l14.544-4.384l8.048,26.712l0.192-0.056c0.92-2.472,2.376-4.576,4.296-6.512
		c1.768-1.792,4.344-3.288,7.024-4.096c9.28-2.8,18.296,1.48,22.536,15.552l8.248,27.376l-14.56,4.384l-7.752-25.752
		c-1.84-6.128-5.216-9.704-10.672-8.064c-3.832,1.16-5.488,4.36-5.76,7.264c-0.088,1.072,0.184,2.344,0.504,3.4l8.36,27.76
		l-14.544,4.384L192.296,272.512z"/>
	<path style="fill:#FFFFFF;" d="M307.88,285.736c5.16,17.136-4.632,28.648-17.168,32.424c-13.688,4.128-26.928-1.704-31.488-16.832
		s2.488-27.792,17.512-32.312C291.104,264.688,303.64,271.664,307.88,285.736z M274.144,296.424
		c2.424,8.048,7.584,13.064,13.808,11.184c5.648-1.704,7.584-8.456,5.048-16.872c-2.104-6.984-6.912-13.256-13.52-11.264
		C272.488,281.568,272.064,289.52,274.144,296.424z"/>
	<path style="fill:#FFFFFF;" d="M314.704,275.848c-1.84-6.128-3.624-11.336-5.12-15.592l12.64-3.808l2.632,6.312l0.184-0.056
		c1.944-6.024,6.528-10.216,13.328-12.264c10.24-3.088,22.12,3.048,26.608,17.984c5.136,17.04-3.256,28.336-13.696,31.48
		c-5.648,1.704-10.744,0.736-13.768-1.696l-0.2,0.064l7.016,23.256l-14.544,4.384L314.704,275.848z M332.568,282.48
		c0.344,1.152,0.76,2.168,1.2,2.976c2.144,3.64,6.392,5.592,10.6,4.328c6.32-1.904,8.464-8.296,6.072-16.232
		c-2.248-7.488-7.296-12.12-13.816-10.16c-4.112,1.232-6.832,5.408-6.488,10c0.032,0.824,0.224,1.816,0.488,2.672L332.568,282.48z"
		/>
</g>
<g>
</g>
<g>
</g>
<g>
</g>
<g>
</g>
<g>
</g>
<g>
</g>
<g>
</g>
<g>
</g>
<g>
</g>
<g>
</g>
<g>
</g>
<g>
</g>
<g>
</g>
<g>
</g>
<g>
</g>
</svg>
