<?xml version="1.0" encoding="iso-8859-1"?>
<!-- Generator: Adobe Illustrator 19.0.0, SVG Export Plug-In . SVG Version: 6.00 Build 0)  -->
<svg version="1.1" id="Layer_1" xmlns="http://www.w3.org/2000/svg" xmlns:xlink="http://www.w3.org/1999/xlink" x="0px" y="0px"
	 viewBox="0 0 511.991 511.991" style="enable-background:new 0 0 511.991 511.991;" xml:space="preserve">
<circle style="fill:#71B84F;" cx="255.995" cy="255.995" r="255.995"/>
<path style="fill:#63A147;" d="M511.95,257.405l-95.234-95.235l-45.159,30.357l-68.641-68.641l-84.949,2.459l-5.018,41.546
	L96.79,371.857l139.339,139.339c6.523,0.502,13.146,0.752,19.82,0.752C396.845,511.95,511.147,398.099,511.95,257.405z"/>
<path style="fill:#F7840A;" d="M116.259,151.834h279.482c14.659,0,26.543,11.884,26.543,26.543v175.416
	c0,14.659-11.884,26.543-26.543,26.543H116.259c-14.659,0-26.543-11.884-26.543-26.543V178.376
	C89.715,163.717,101.599,151.834,116.259,151.834z"/>
<g>
	<path style="fill:#4D4D4D;" d="M151.684,380.387h43.353v6.373c0,3.512-2.86,6.373-6.373,6.373h-30.609
		c-3.512,0-6.373-2.86-6.373-6.373L151.684,380.387L151.684,380.387z M316.965,380.387h43.353v6.373c0,3.512-2.86,6.373-6.373,6.373
		h-30.608c-3.512,0-6.373-2.86-6.373-6.373V380.387z"/>
	<path style="fill:#4D4D4D;" d="M218.067,118.868h75.866c5.67,0,10.286,4.366,10.286,9.684v23.282h-14.1v-15.906
		c0-2.408-2.057-4.315-4.616-4.315h-59.057c-2.559,0-4.616,1.957-4.616,4.315v15.906h-14.1v-23.282
		c0-5.319,4.616-9.684,10.286-9.684C218.017,118.868,218.067,118.868,218.067,118.868z"/>
</g>
<path style="fill:#E1730A;" d="M117.262,164.829h271.354c3.814,0,7.225,1.556,9.734,4.065l0,0c2.509,2.509,4.065,5.92,4.065,9.734
	v175.969c0,3.814-1.556,7.225-4.065,9.734l0,0c-2.509,2.509-5.92,4.065-9.734,4.065H117.262c-3.814,0-7.225-1.556-9.734-4.065l0,0
	c-2.509-2.509-4.065-5.92-4.065-9.734V178.628c0-3.764,1.556-7.225,4.065-9.734l0,0
	C110.036,166.385,113.449,164.829,117.262,164.829z M388.616,167.94H117.262c-2.96,0-5.619,1.204-7.577,3.161l0,0
	c-1.957,1.957-3.161,4.616-3.161,7.577v175.968c0,2.96,1.204,5.619,3.161,7.577l0,0c1.957,1.957,4.616,3.161,7.577,3.161h271.354
	c2.96,0,5.619-1.205,7.577-3.161l0,0c1.957-1.957,3.161-4.616,3.161-7.577V178.678c0-2.96-1.204-5.619-3.161-7.577l0,0
	C394.235,169.145,391.576,167.94,388.616,167.94z"/>
<path style="fill:#FFFFFF;" d="M207.781,151.532c-1.305,1.154-2.659,2.408-3.964,3.764c-3.161,3.161-6.122,6.774-8.279,10.336
	c-2.108,3.361-3.462,6.573-3.612,9.182c-0.1,1.706,0.401,3.111,1.706,4.014c3.412,2.408,9.835-1.305,15.755-7.025
	c3.562-3.412,6.824-7.577,9.233-11.691c2.258-3.914,3.714-7.727,3.663-10.587c0-0.652-0.1-1.255-0.351-1.807v-6.624
	c3.663,1.506,5.218,4.466,5.318,8.329c0.05,3.814-1.606,8.53-4.315,13.146c-2.609,4.466-6.222,9.032-10.085,12.795
	c-7.526,7.276-16.308,11.541-22.078,7.476c-2.86-2.007-3.964-4.917-3.814-8.329c0.201-3.512,1.857-7.577,4.315-11.591
	c2.408-3.864,5.569-7.777,8.982-11.19c2.408-2.459,5.018-4.666,7.526-6.473v6.274H207.781z"/>
<path style="fill:#FFD630;" d="M181.388,175.266h23.934c-2.158,1.656-4.315,2.96-6.222,3.663c-0.853-0.903-2.108-1.506-3.462-1.506
	c-2.609,0-4.717,2.108-4.717,4.717c0,2.609,2.108,4.717,4.717,4.717c2.057,0,3.764-1.305,4.416-3.111
	c3.914-1.255,8.128-4.065,12.042-7.727c0.903,0.652,1.506,1.756,1.506,2.96v66.986c0,2.057-1.656,3.714-3.714,3.714h-28.5
	c-2.057,0-3.714-1.656-3.714-3.714v-66.986C177.674,176.922,179.33,175.266,181.388,175.266z"/>
<path style="fill:#FFFFFF;" d="M205.372,175.266h4.566c0.853,0,1.606,0.251,2.208,0.752c-3.914,3.663-8.128,6.473-12.042,7.727
	c0.201-0.502,0.301-1.053,0.301-1.606c0-1.255-0.451-2.358-1.255-3.211C201.057,178.226,203.215,176.922,205.372,175.266z"/>
<rect x="119.219" y="246.872" style="fill:#FFC823;" width="35.977" height="5.168"/>
<rect x="125.592" y="151.833" style="fill:#663333;" width="22.73" height="228.504"/>
<path style="fill:#FFC823;" d="M127.85,229.658h18.163c6.373,0,11.591,4.366,11.591,9.634v21.726c0,5.318-5.218,9.634-11.591,9.634
	H127.85c-6.373,0-11.591-4.366-11.591-9.634v-21.726C116.259,233.972,121.477,229.658,127.85,229.658z M130.058,234.675h13.749
	c4.817,0,8.731,3.261,8.731,7.276v16.408c0,4.014-3.914,7.276-8.731,7.276h-13.749c-4.817,0-8.731-3.261-8.731-7.276v-16.408
	C121.326,237.936,125.241,234.675,130.058,234.675z"/>
<path style="fill:#FFDE58;" d="M136.931,226.345h0.05c1.829,0,3.311,1.483,3.311,3.311v24.787c0,1.829-1.483,3.311-3.311,3.311
	h-0.05c-1.829,0-3.311-1.483-3.311-3.311v-24.787C133.62,227.828,135.103,226.345,136.931,226.345z"/>
<rect x="357.307" y="246.872" style="fill:#FFC823;" width="35.977" height="5.168"/>
<rect x="363.68" y="151.833" style="fill:#663333;" width="22.73" height="228.504"/>
<path style="fill:#FFC823;" d="M365.936,229.658h18.163c6.373,0,11.591,4.366,11.591,9.634v21.726c0,5.318-5.218,9.634-11.591,9.634
	h-18.163c-6.373,0-11.591-4.366-11.591-9.634v-21.726C354.345,233.972,359.564,229.658,365.936,229.658z M368.144,234.675h13.749
	c4.817,0,8.731,3.261,8.731,7.276v16.408c0,4.014-3.914,7.276-8.731,7.276h-13.749c-4.817,0-8.731-3.261-8.731-7.276v-16.408
	C359.413,237.936,363.327,234.675,368.144,234.675z"/>
<path style="fill:#FFDE58;" d="M375.019,226.345h0.05c1.829,0,3.311,1.483,3.311,3.311v24.787c0,1.829-1.483,3.311-3.311,3.311
	h-0.05c-1.829,0-3.311-1.483-3.311-3.311v-24.787C371.706,227.828,373.189,226.345,375.019,226.345z"/>
<g>
</g>
<g>
</g>
<g>
</g>
<g>
</g>
<g>
</g>
<g>
</g>
<g>
</g>
<g>
</g>
<g>
</g>
<g>
</g>
<g>
</g>
<g>
</g>
<g>
</g>
<g>
</g>
<g>
</g>
</svg>
