<?xml version="1.0" encoding="iso-8859-1"?>
<!-- Uploaded to: SVG Repo, www.svgrepo.com, Generator: SVG Repo Mixer Tools -->
<svg height="800px" width="800px" version="1.1" id="Layer_1" xmlns="http://www.w3.org/2000/svg" xmlns:xlink="http://www.w3.org/1999/xlink" 
	 viewBox="0 0 504.32 504.32" xml:space="preserve">
<g transform="translate(5 1)">
	<path style="fill:#F2EDDA;" d="M341.027,123.587h51.2c0-42.667-34.133-51.2-34.133-51.2h68.267
		c18.773,0,34.133,15.36,34.133,34.133v358.4c0,18.773-15.36,34.133-34.133,34.133H153.293v-93.867c0-14.507-11.093-25.6-25.6-25.6
		H33.827V106.52c0-18.773,15.36-34.133,34.133-34.133h256c0,0-34.133,8.533-34.133,51.2H341.027z"/>
	<path style="fill:#FF7474;" d="M392.227,123.587h-51.2h-51.2c0-42.667,34.133-51.2,34.133-51.2V38.253c0,0-17.067,0-17.067-8.533
		V4.12h68.267v25.6c0,8.533-17.067,8.533-17.067,8.533v34.133C358.093,72.387,392.227,80.92,392.227,123.587"/>
	<path style="fill:#AAB1BA;" d="M153.293,405.187v93.867L33.827,379.587h93.867C142.2,379.587,153.293,390.68,153.293,405.187"/>
</g>
<path style="fill:#51565F;" d="M158.293,504.32c-0.853,0-2.56-0.853-3.413-0.853L35.413,384c-0.853-0.853-0.853-1.707-0.853-3.413
	V107.52c0-21.333,17.067-38.4,38.4-38.4h196.267c2.56,0,4.267,1.707,4.267,4.267c0,2.56-1.707,4.267-4.267,4.267H72.96
	c-16.213,0-29.867,13.653-29.867,29.867v271.36l110.933,110.933v-83.627c0-11.947-9.387-21.333-21.333-21.333H90.027
	c-2.56,0-4.267-1.707-4.267-4.267c0-2.56,1.707-4.267,4.267-4.267h42.667c16.213,0,29.867,13.653,29.867,29.867v93.867
	c0,1.707-0.853,3.413-2.56,4.267C159.147,504.32,159.147,504.32,158.293,504.32z M431.36,504.32H192.427
	c-2.56,0-4.267-1.707-4.267-4.267c0-2.56,1.707-4.267,4.267-4.267H431.36c16.213,0,29.867-13.653,29.867-29.867v-358.4
	c0-16.213-13.653-29.867-29.867-29.867h-8.533c-2.56,0-4.267-1.707-4.267-4.267c0-2.56,1.707-4.267,4.267-4.267h8.533
	c21.333,0,38.4,17.067,38.4,38.4v358.4C469.76,487.253,452.693,504.32,431.36,504.32z M363.093,350.72H243.627
	c-2.56,0-4.267-1.707-4.267-4.267s1.707-4.267,4.267-4.267h119.467c2.56,0,4.267,1.707,4.267,4.267S365.653,350.72,363.093,350.72z
	 M346.027,299.52h-85.333c-2.56,0-4.267-1.707-4.267-4.267c0-2.56,1.707-4.267,4.267-4.267h85.333c2.56,0,4.267,1.707,4.267,4.267
	C350.293,297.813,348.587,299.52,346.027,299.52z M226.56,299.52h-102.4c-2.56,0-4.267-1.707-4.267-4.267
	c0-2.56,1.707-4.267,4.267-4.267h102.4c2.56,0,4.267,1.707,4.267,4.267C230.827,297.813,229.12,299.52,226.56,299.52z
	 M380.16,248.32h-51.2c-2.56,0-4.267-1.707-4.267-4.267c0-2.56,1.707-4.267,4.267-4.267h51.2c2.56,0,4.267,1.707,4.267,4.267
	C384.427,246.613,382.72,248.32,380.16,248.32z M294.827,248.32h-102.4c-2.56,0-4.267-1.707-4.267-4.267
	c0-2.56,1.707-4.267,4.267-4.267h102.4c2.56,0,4.267,1.707,4.267,4.267C299.093,246.613,297.387,248.32,294.827,248.32z
	 M158.293,248.32H124.16c-2.56,0-4.267-1.707-4.267-4.267c0-2.56,1.707-4.267,4.267-4.267h34.133c2.56,0,4.267,1.707,4.267,4.267
	C162.56,246.613,160.853,248.32,158.293,248.32z M260.693,197.12H124.16c-2.56,0-4.267-1.707-4.267-4.267s1.707-4.267,4.267-4.267
	h136.533c2.56,0,4.267,1.707,4.267,4.267S263.253,197.12,260.693,197.12z M346.027,180.053c-2.56,0-4.267-1.707-4.267-4.267v-51.2
	c0-2.56,1.707-4.267,4.267-4.267h46.933c-2.56-34.987-30.72-42.667-30.72-42.667c-1.707-0.853-3.413-2.56-3.413-4.267V39.253
	c0-2.56,1.707-4.267,4.267-4.267c5.12,0,12.8-1.707,12.8-4.267V9.387H316.16V30.72c0,2.56,7.68,4.267,12.8,4.267
	c2.56,0,4.267,1.707,4.267,4.267v34.133c0,1.707-1.707,3.413-3.413,4.267c-0.853,0-29.013,7.68-30.72,42.667h12.8
	c2.56,0,4.267,1.707,4.267,4.267c0,2.56-1.707,4.267-4.267,4.267h-17.067c-2.56,0-4.267-1.707-4.267-4.267
	c0-37.547,24.747-50.347,34.133-54.613V42.667c-8.533-0.853-17.067-4.267-17.067-12.8v-25.6c0-2.56,1.707-4.267,4.267-4.267h68.267
	c2.56,0,4.267,1.707,4.267,4.267v25.6c0,7.68-8.533,11.947-17.067,12.8v27.307c9.387,3.413,34.133,17.067,34.133,54.613
	c0,2.56-1.707,4.267-4.267,4.267h-46.933v46.933C350.293,178.347,348.587,180.053,346.027,180.053z"/>
</svg>