<svg xmlns="http://www.w3.org/2000/svg" xmlns:se="http://svg-edit.googlecode.com" xmlns:xlink="http://www.w3.org/1999/xlink" xmlns:dc="http://purl.org/dc/elements/1.1/" xmlns:cc="http://creativecommons.org/ns#" xmlns:rdf="http://www.w3.org/1999/02/22-rdf-syntax-ns#" xmlns:inkscape="http://www.inkscape.org/namespaces/inkscape" >                                    <title>my vector image</title>                                    <!-- Created with Vector Paint - http://www.vectorpaint.yaks.com/ https://chrome.google.com/webstore/detail/hnbpdiengicdefcjecjbnjnoifekhgdo -->                                    <rect id="backgroundrect" width="100%" height="100%" x="0" y="0" fill="#FFFFFF" stroke="none"/>                               
 <g class="currentLayer" style="">
 <title>Layer 1</title>
 <polyline fill="#0bd50b" stroke="#222222" stroke-width="2" stroke-linejoin="round" stroke-dashoffset="" fill-rule="nonzero" marker-start="" marker-mid="" marker-end="" id="svg_1" points="-22.80000813272221,56.22221247465566 -22.80000813272221,56.22221247465566 -21.688897082319528,56.22221247465566 -19.466674981514167,58.44443457546103 -15.022230779903452,58.44443457546103 -9.466675527890054,60.6666566762664 -6.133342376682016,61.77776772666908 -5.02223132627934,62.88887877707174 -1.6888981750713015,65.1111008778771 -0.5777871246686247,67.33332297868247 2.7555460265394203,69.55554507948781 4.977768127344774,75.11110033150123 8.311101278552812,81.77776663391731 12.755545480163526,90.66665503713874 17.199989681774248,100.66665449076282 20.533322832982286,108.44443184358158 23.866655984190324,117.33332024680305 24.977767034593008,125.11109759962181 26.088878084995677,133.99998600284323 26.088878084995677,143.99998545646736 28.311100185801045,152.88887385968877 28.311100185801045,160.66665121250756 29.422211236203715,168.4444285653263 30.5333222866064,177.3333169685477 30.5333222866064,183.9999832709638 30.5333222866064,192.88887167418522 31.644433337009083,201.77776007740664 32.75554438741175,210.6666484806281 34.97776648821712,220.66664793425224 34.97776648821712,229.55553633747365 36.08887753861979,238.44442474069507 37.199988589022475,247.33331314391654 38.31109963942516,255.11109049673524 39.42221068982783,260.6666457487487 39.42221068982783,266.2222010007621 41.644432790633196,271.7777562527755 42.755543841035866,277.33331150478887 43.86665489143855,281.7777557063996 46.088876992243904,285.1110888576076 47.19998804264659,287.33331095841305 48.31109909304927,289.55553305921836 48.31109909304927,290.666644109621 48.31109909304927,290.666644109621 48.31109909304927,290.666644109621 49.42221014345194,290.666644109621 50.533321193854626,290.666644109621 53.86665434506266,290.666644109621 57.1999874962707,288.4444220088157 59.42220959707607,286.2221999080103 62.75554274828411,282.88886675680226 64.97776484908945,279.55553360559423 66.08887589949214,276.22220045438615 68.3110980002975,272.88886730317813 70.53332010110285,268.4444231015674 71.64443115150553,263.9999788999567 73.8666532523109,261.77775679915135 74.97776430271358,258.4444236479433 76.08887535311626,255.11109049673524 77.19998640351895,250.66664629512456 79.4222085043243,246.22220209351383 80.53331955472697,242.8888689423058 82.75554165553234,237.3333136902924 84.97776375633768,232.88886948868168 87.19998585714305,228.44442528707094 88.31109690754573,223.99998108546026 90.5333190083511,220.66664793425224 91.6444300587538,217.33331478304416 92.75554110915645,215.1110926822388 93.86665215955912,211.77775953103077 94.97776320996181,209.5555374302254 97.19998531076718,206.22220427901738 98.31109636116986,202.88887112780935 100.5333184619752,201.77776007740664 101.64442951237788,200.66664902700398 101.64442951237788,198.44442692619862 102.75554056278057,196.22220482539325 104.97776266358593,195.1110937749906 107.19998476439127,193.99998272458788 109.42220686519664,192.88887167418522 110.53331791559933,192.88887167418522 110.53331791559933,192.88887167418522 110.53331791559933,192.88887167418522 111.64442896600201,197.33331587579596 113.86665106680735,201.77776007740664 117.1999842180154,209.5555374302254 119.42220631882074,216.2222037326415 122.7555394700288,225.11109213586292 124.97776157083416,233.9999805390844 127.1999836716395,242.8888689423058 128.31109472204218,250.66664629512456 129.42220577244487,258.4444236479433 129.42220577244487,263.9999788999567 131.64442787325024,269.5555341519701 132.7555389236529,277.33331150478887 133.86664997405558,283.9999778072049 136.08887207486094,290.666644109621 137.19998312526363,297.33331041203706 138.3110941756663,307.3333098656612 140.53331627647165,315.11108721848 141.64442732687434,325.1110866721041 146.08887152848504,335.1110861257282 148.3110936292904,345.1110855793523 152.75553783090112,357.3333071337818 159.4222041333172,369.55552868821127 168.31109253653864,383.9999723434461 177.19998093976008,397.33330494827817 181.6444251413708,402.8888602002917 186.08886934298152,409.5555265027077 191.64442459499492,413.99997070431846 194.97775774620294,415.1110817547211 194.97775774620294,416.22219280512377 198.311090897411,416.22219280512377 201.64442404861902,411.77774860351303 206.08886825022975,402.8888602002917 210.53331245184043,392.88886074666755 213.8666456030485,382.8888612930434 216.08886770385385,369.55552868821127 218.31108980465916,355.11108503297646 221.64442295586727,343.9999745289496 226.08886715747795,330.66664192411747 228.31108925828332,319.5555314200907 230.53331135908866,310.6666430168692 231.6444224094913,303.99997671445317 232.75553345989405,295.11108831123175 234.97775556069942,288.4444220088157 234.97775556069942,282.88886675680226 236.08886661110208,277.33331150478887 237.1999776615048,270.66664520237276 239.4221997623101,263.9999788999567 239.4221997623101,258.4444236479433 240.5333108127128,251.77775734552722 241.64442186311547,246.22220209351383 242.75553291351815,241.7777578919031 243.8666439639208,237.3333136902924 243.8666439639208,232.88886948868168 244.97775501432346,228.44442528707094 246.0888660647262,223.99998108546026 248.31108816553157,219.55553688384953 248.31108816553157,217.33331478304416 250.53331026633694,212.88887058143348 252.75553236714225,210.6666484806281 253.86664341754496,206.22220427901738 257.19997656875296,202.88887112780935 258.3110876191556,200.66664902700398 261.6444207703637,197.33331587579596 263.86664287116906,197.33331587579596 266.0888649719744,195.1110937749906 266.0888649719744,195.1110937749906 269.42219812318245,197.33331587579596 271.64442022398777,205.11109322861472 274.97775337519585,215.1110926822388 278.31108652640387,223.99998108546026 280.53330862720924,233.9999805390844 282.7555307280146,243.99997999270846 284.9777528288199,251.77775734552722 286.08886387922263,259.555534698346 287.1999749296253,266.2222010007621 289.42219703043065,272.88886730317813 290.53330808083336,277.33331150478887 292.7555301816387,283.9999778072049 296.08886333284676,288.4444220088157 296.08886333284676,289.55553305921836 297.1999743832494,290.666644109621 298.31108543365207,289.55553305921836 303.8666406856656,286.2221999080103 309.4221959376789,280.6666446559969 312.75552908888693,272.88886730317813 314.9777511896923,267.33331205116474 318.3110843409003,261.77775679915135 319.422195391303,256.22220154713796 322.75552854251106,250.66664629512456 324.9777506433164,243.99997999270846 327.19997274412174,238.44442474069507 329.4221948449271,233.9999805390844 330.5333058953299,229.55553633747365 332.7555279961352,225.11109213586292 332.7555279961352,222.88887003505755 332.7555279961352,219.55553688384953 334.9777500969405,215.1110926822388 336.0888611473432,210.6666484806281 337.19997219774586,206.22220427901738 339.42219429855123,202.88887112780935 340.5333053489539,199.55553797660133 341.6444163993566,197.33331587579596 342.75552744975926,192.88887167418522 344.9777495505646,190.66664957337986 346.0888606009673,186.2222053717692 349.42219375217536,183.9999832709638 350.533304802578,181.77776117015844 352.7555269033834,179.55553906935307 353.86663795378604,179.55553906935307 354.97774900418875,179.55553906935307 354.97774900418875,179.55553906935307 356.0888600545914,179.55553906935307 357.1999711049942,179.55553906935307 358.31108215539683,179.55553906935307 359.4221932057995,179.55553906935307 363.86663740741017,180.66665011975573 368.3110816090209,185.11109432136647 372.7555258106316,191.77776062378257 378.31108106264503,197.33331587579596 383.8666363146585,202.88887112780935 388.31108051626904,208.44442637982274 392.75552471787984,213.99998163183614 396.08885786908786,219.55553688384953 399.42219102029594,223.99998108546026 402.75552417150396,228.44442528707094 404.97774627230933,232.88886948868168 407.19996837311464,237.3333136902924 408.31107942351736,242.8888689423058 409.42219047392,248.4444241943192 410.5333015243227,255.11109049673524 412.75552362512803,261.77775679915135 413.8666346755307,270.66664520237276 416.0888567763361,278.4444225551915 417.19996782673877,287.33331095841305 419.42218992754414,296.2221993616344 421.6444120283495,303.99997671445317 422.75552307875216,311.7777540672719 426.08885622996024,317.3333093192853 427.1999672803629,325.1110866721041 430.5333004315709,330.66664192411747 431.64441148197363,336.22219717613086 434.97774463318166,341.7777524281443 436.0888556835843,345.1110855793523 439.42218883479234,348.44441873056036 439.42218883479234,350.66664083136567 441.64441093559765,350.66664083136567 443.8666330364031,350.66664083136567 447.19996618761115,349.555529780963 451.64441038922183,343.9999745289496 456.08885459083257,338.44441927693623 462.7555208932486,330.66664192411747 468.31107614526195,322.8888645712987 472.75552034687274,313.99997616807735 476.0888534980808,303.99997671445317 479.4221866492888,296.2221993616344 480.53329769969156,289.55553305921836 481.6444087500942,283.9999778072049 482.75551980049687,277.33331150478887 483.8666308508995,271.7777562527755 484.9777419013022,265.11108995035937 486.08885295170495,259.555534698346 487.1999640021076,251.77775734552722 489.4221861029129,246.22220209351383 491.6444082037183,240.66664684150044 493.8666303045236,236.2222026398897 494.97774135492625,233.9999805390844 496.0888524053289,232.88886948868168 497.19996345573173,232.88886948868168 497.19996345573173,232.88886948868168 500.5332966069397,232.88886948868168 501.64440765734236,232.88886948868168 502.7555187077451,232.88886948868168 506.0888518589531,237.3333136902924 511.6444071109665,243.99997999270846 518.3110734133827,253.9999794463326 526.0888507662014,265.11108995035937 532.7555170686175,273.99997835358084 538.3110723206308,281.7777557063996 541.6444054718389,286.2221999080103 543.8666275726442,290.666644109621 546.0888496734497,295.11108831123175 547.1999607238523,299.55553251284243 549.4221828246576,302.88886566405046 551.644404925463,308.4444209160639 554.9777380766711,313.99997616807735 557.1999601774764,319.5555314200907 560.5332933286845,325.1110866721041 563.8666264798925,329.55553087371476 566.0888485806979,332.88886402492284 568.3110706815032,335.1110861257282 568.3110706815032,337.3333082265335 569.4221817319059,338.44441927693623 570.5332927823085,339.5555303273389 572.755514883114,340.66664137774166 576.0888480343219,340.66664137774166 577.1999590847247,341.7777524281443 580.5332922359327,341.7777524281443 582.7555143367382,339.5555303273389 584.9777364375435,335.1110861257282 587.1999585383488,329.55553087371476 590.5332916895568,321.77775352089606 592.7555137903622,311.7777540672719 596.0888469415702,301.7777546136478 597.1999579919728,292.8888662104264 599.4221800927783,282.88886675680226 599.4221800927783,272.88886730317813 599.4221800927783,266.2222010007621 598.3110690423756,257.3333125975406 597.1999579919728,249.55553524472185 596.0888469415702,241.7777578919031 594.9777358911675,232.88886948868168 594.9777358911675,227.3333142366683 594.9777358911675,220.66664793425224 594.9777358911675,216.2222037326415 594.9777358911675,210.6666484806281 596.0888469415702,206.22220427901738 597.1999579919728,200.66664902700398 599.4221800927783,195.1110937749906 602.7555132439863,188.44442747257452 604.9777353447917,182.8888722205611 608.3110684959998,177.3333169685477 610.5332905968052,172.88887276693706 614.9777347984158,168.4444285653263 617.1999568992211,166.22220646452092 619.4221790000265,162.8888733133129 622.7555121512345,161.77776226291022 626.0888453024426,159.5555401621049 627.1999563528452,158.44442911170216 628.3110674032479,158.44442911170216 629.4221784536506,158.44442911170216 630.5332895040533,158.44442911170216 632.7555116048586,159.5555401621049 636.0888447560668,161.77776226291022 640.5332889576774,166.22220646452092 646.0888442096908,170.66665066613166 651.6443994617042,178.44442801895042 656.088843663315,185.11109432136647 660.5332878649256,191.77776062378257 662.755509965731,197.33331587579596 666.0888431169391,203.999982178212 668.3110652177444,208.44442637982274 670.5332873185497,215.1110926822388 673.8666204697578,221.7777589846549 674.9777315201604,227.3333142366683 678.3110646713685,232.88886948868168 679.4221757217712,240.66664684150044 682.7555088729792,246.22220209351383 683.8666199233819,250.66664629512456 686.0888420241872,255.11109049673524 687.1999530745899,257.3333125975406 688.3110641249926,259.555534698346 689.4221751753954,260.6666457487487 690.533286225798,263.9999788999567 691.6443972762007,263.9999788999567 692.7555083266033,263.9999788999567 693.866619377006,263.9999788999567 697.199952528214,263.9999788999567 701.6443967298247,260.6666457487487 706.0888409314355,257.3333125975406 712.7555072338515,253.9999794463326 717.1999514354624,249.55553524472185 719.4221735362677,246.22220209351383 722.7555066874756,241.7777578919031 726.0888398386837,237.3333136902924 729.4221729898917,232.88886948868168 732.7555061410998,227.3333142366683 734.9777282419051,221.7777589846549 736.0888392923079,216.2222037326415 737.1999503427105,210.6666484806281 738.3110613931132,203.999982178212 739.4221724435158,198.44442692619862 740.5332834939185,193.99998272458788 740.5332834939185,189.5555385229772 741.6443945443212,186.2222053717692 741.6443945443212,182.8888722205611 741.6443945443212,179.55553906935307 741.6443945443212,175.11109486774237 741.6443945443212,171.77776171653431 741.6443945443212,168.4444285653263 741.6443945443212,166.22220646452092 742.755505594724,162.8888733133129 742.755505594724,161.77776226291022 742.755505594724,159.5555401621049 743.8666166451266,157.3333180612995 743.8666166451266,153.99998491009143 744.9777276955293,151.77776280928612 744.9777276955293,149.55554070848075 746.0888387459319,148.44442965807806 746.0888387459319,145.11109650687 746.0888387459319,142.88887440606464 748.3110608467373,139.55554125485662 749.42217189714,136.2222081036486 750.5332829475426,133.99998600284323 751.6443939979454,130.6666528516352 752.755505048348,127.33331970042713 754.9777271491533,123.9999865492191 757.1999492499588,121.77776444841373 758.3110603003614,117.33332024680305 759.4221713507641,116.22220919640034 761.6443934515694,113.99998709559497 762.7555045019722,112.88887604519232 763.8666155523748,109.5555428939843 764.9777266027775,108.44443184358158 766.0888376531801,106.22220974277622 768.3110597539855,105.11109869237356 768.3110597539855,103.9999876419709 768.3110597539855,103.9999876419709 769.4221708043882,102.88887659156819 770.5332818547909,101.77776554116554 772.7555039555962,99.55554344036017 772.7555039555962,99.55554344036017 773.8666150059989,98.44443238995751 773.8666150059989,97.3333213395548 774.9777260564015,97.3333213395548 774.9777260564015,96.22221028915212 774.9777260564015,95.11109923874946 776.0888371068042,95.11109923874946 776.0888371068042,95.11109923874946 777.1999481572068,95.11109923874946 777.1999481572068,93.99998818834678 777.1999481572068,92.88887713794409 778.3110592076097,91.77776608754141 779.4221702580123,90.66665503713874 780.533281308415,88.44443293633338 781.6443923588176,88.44443293633338 781.6443923588176,87.3333218859307 781.6443923588176,86.22221083552802 782.7555034092203,85.11109978512533 782.7555034092203,83.99998873472266 783.8666144596231,81.77776663391731 783.8666144596231,80.66665558351463 783.8666144596231,79.55554453311194 783.8666144596231,78.44443348270926 783.8666144596231,77.33332243230659 784.9777255100257,77.33332243230659 784.9777255100257,75.11110033150123 784.9777255100257,73.99998928109855 784.9777255100257,72.88887823069587 784.9777255100257,72.88887823069587 784.9777255100257,71.77776718029318 784.9777255100257,70.6666561298905 783.8666144596231,70.6666561298905 783.8666144596231,69.55554507948781 782.7555034092203,69.55554507948781 782.7555034092203,68.44443402908516 782.7555034092203,68.44443402908516 782.7555034092203,67.33332297868247 781.6443923588176,66.22221192827979 781.6443923588176,65.1111008778771 781.6443923588176,63.99998982747442 781.6443923588176,63.99998982747442 781.6443923588176,62.88887877707174 781.6443923588176,61.77776772666908 781.6443923588176,60.6666566762664 781.6443923588176,59.555545625863715 781.6443923588176,59.555545625863715 781.6443923588176,58.44443457546103 781.6443923588176,57.33332352505835 " style="color: rgb(0, 0, 0);"/>
 </g>
 </svg>