<?xml version="1.0" encoding="iso-8859-1"?>
<!-- Generator: Adobe Illustrator 19.0.0, SVG Export Plug-In . SVG Version: 6.00 Build 0)  -->
<svg version="1.1" id="Layer_1" xmlns="http://www.w3.org/2000/svg" xmlns:xlink="http://www.w3.org/1999/xlink" x="0px" y="0px"
	 viewBox="0 0 512 512" style="enable-background:new 0 0 512 512;" xml:space="preserve">
<polygon style="fill:#327CCF;" points="179.04,474.054 8.017,448.4 8.017,37.945 179.04,63.599 "/>
<polygon style="fill:#38ABEC;" points="332.96,448.4 179.04,474.054 179.04,63.599 332.96,37.945 "/>
<polygon style="fill:#327CCF;" points="503.983,474.054 332.96,448.4 332.96,37.945 503.983,63.599 "/>
<polygon style="fill:#FDD349;" points="42.221,405.645 179.04,431.298 179.04,106.354 42.221,89.252 "/>
<polygon style="fill:#FDE265;" points="332.96,405.645 179.04,431.298 179.04,106.354 332.96,80.701 "/>
<polygon style="fill:#FDD349;" points="469.779,422.747 332.96,405.645 332.96,80.701 469.779,97.803 "/>
<polygon style="fill:#FF5800;" points="255.104,297.142 266.448,332.053 303.156,332.053 273.458,353.63 284.802,388.542 
	255.104,366.966 225.407,388.542 236.75,353.63 207.053,332.053 243.761,332.053 "/>
<path d="M503.983,148.578c4.428,0,8.017-3.588,8.017-8.017V63.599c0-3.969-2.903-7.339-6.828-7.928L334.29,30.039
	c-0.867-0.146-1.782-0.146-2.649,0L178.974,55.483L9.205,30.017C4.429,29.306,0,33.116,0,37.945v342.043
	c0,4.428,3.588,8.017,8.017,8.017s8.017-3.588,8.017-8.017V47.254l154.99,23.248v26.77L43.216,81.296
	c-2.283-0.283-4.576,0.423-6.301,1.944c-1.723,1.522-2.711,3.711-2.711,6.011v316.393c0,3.858,2.747,7.168,6.539,7.879
	l130.279,24.427v26.794l-154.99-23.248v-27.302c0-4.428-3.588-8.017-8.017-8.017S0,409.766,0,414.195V448.4
	c0,3.969,2.903,7.339,6.828,7.928l171.023,25.653c0.826,0.128,1.684,0.117,2.508-0.021l152.667-25.445l169.769,25.465
	c4.775,0.716,9.205-3.102,9.205-7.928V174.761c0-4.428-3.588-8.017-8.017-8.017s-8.017,3.588-8.017,8.017v289.983l-154.99-23.248
	v-26.77l127.807,15.976c0.332,0.041,0.664,0.062,0.995,0.062c1.942,0,3.832-0.707,5.306-2.006c1.723-1.522,2.711-3.711,2.711-6.01
	V208.914c0-0.011,0-0.021,0-0.031V97.803c0-4.043-3.01-7.453-7.022-7.955L340.977,73.624v-26.37l154.99,23.248v70.058
	C495.967,144.988,499.555,148.578,503.983,148.578z M359.796,92.41l13.874,32.374l-32.693,2.514V89.782l18.713,2.339
	C359.727,92.217,359.755,92.314,359.796,92.41z M344.129,305.081l52.848-36.334l29.798,52.147l-49.771,31.672L344.129,305.081z
	 M50.238,181.416l33.711-6.321l83.694,54.156l-46.759,75.534l-70.646-8.831V181.416z M324.944,128.531l-52.456,4.035
	c-0.138,0.011-0.272,0.034-0.407,0.052l-14.215-31.275l67.078-11.18V128.531z M276.386,195.569l-47.169,54.426l-42.16-27.279
	v-61.885L276.386,195.569z M218.612,262.231l-31.556,36.411v-56.83L218.612,262.231z M292.256,201.74l32.688,12.712v76.553
	l-80.854-33.689L292.256,201.74z M296.415,186.154l-17.281-38.018l45.81-3.524v52.638L296.415,186.154z M241.492,104.072
	l33.528,73.761l-87.964-34.208v-30.481L241.492,104.072z M171.023,212.341l-64.191-41.536l64.191-12.036V212.341z M171.023,254.25
	v56.801l-32.637-4.08L171.023,254.25z M171.023,327.21v94.428L78.179,404.23l50.923-82.26L171.023,327.21z M187.056,323.124
	l45.973-53.046l91.914,38.297v90.478l-137.887,22.981V323.124z M440.318,312.277l-30.082-52.644l51.526-35.424v74.422
	L440.318,312.277z M340.977,287.789v-70.805h77.47c0.01,0,0.019,0.002,0.029,0.002c0.014,0,0.028-0.002,0.042-0.002h25.449
	L340.977,287.789z M340.977,200.951v-57.574l39.365-3.028l25.972,60.602H340.977z M324.944,73.91L187.056,96.891V70.389
	l137.887-22.981V73.91z M171.023,113.432v29.026l-84.62,15.867c-1.929-0.347-3.922,0.034-5.59,1.049l-30.575,5.731V98.333
	L171.023,113.432z M50.238,312.112l61.361,7.67l-50.316,81.28l-11.045-2.072V312.112z M187.056,438.089l137.887-22.981v26.501
	L187.056,464.59V438.089z M340.977,328.694l52.956,76.493l-52.956-6.62V328.694z M415.281,407.855l-29.143-42.096l75.624-48.125
	v96.032L415.281,407.855z M461.762,200.951h-38.005L378.103,94.423l83.659,10.457V200.951z"/>
<path d="M303.156,324.037h-30.885l-9.544-29.372c-1.06-3.265-4.191-5.54-7.624-5.54s-6.563,2.274-7.624,5.54l-9.544,29.372h-30.884
	c-3.38,0-6.47,2.202-7.574,5.396c-1.141,3.298,0.038,7.055,2.862,9.107l24.985,18.153l-9.544,29.372
	c-0.975,3.001-0.058,6.378,2.303,8.471c2.784,2.469,7.019,2.681,10.033,0.492l24.985-18.152l24.986,18.152
	c2.871,2.086,6.887,2.006,9.675-0.19c2.608-2.055,3.688-5.614,2.662-8.772l-9.544-29.372l24.985-18.153
	c2.825-2.051,4.003-5.809,2.863-9.107C309.626,326.239,306.537,324.037,303.156,324.037z M265.834,356.108l3.719,11.447
	l-9.737-7.074c-1.405-1.021-3.058-1.532-4.712-1.532s-3.307,0.511-4.712,1.532l-9.737,7.074l3.719-11.447
	c1.073-3.303-0.103-6.921-2.913-8.963l-9.737-7.075h12.036c3.473,0,6.551-2.236,7.624-5.54l3.719-11.446l3.719,11.446
	c1.073,3.304,4.152,5.54,7.624,5.54h12.036l-9.737,7.075C265.936,349.186,264.761,352.805,265.834,356.108z"/>
<g>
</g>
<g>
</g>
<g>
</g>
<g>
</g>
<g>
</g>
<g>
</g>
<g>
</g>
<g>
</g>
<g>
</g>
<g>
</g>
<g>
</g>
<g>
</g>
<g>
</g>
<g>
</g>
<g>
</g>
</svg>
