<?xml version="1.0" encoding="iso-8859-1"?>
<!-- Generator: Adobe Illustrator 19.0.0, SVG Export Plug-In . SVG Version: 6.00 Build 0)  -->
<svg version="1.1" id="Layer_1" xmlns="http://www.w3.org/2000/svg" xmlns:xlink="http://www.w3.org/1999/xlink" x="0px" y="0px"
	 viewBox="0 0 512 512" style="enable-background:new 0 0 512 512;" xml:space="preserve">
<circle style="fill:#FF873D;" cx="256" cy="255.945" r="255.945"/>
<path style="fill:#E84F4F;" d="M511.744,266.751C506.135,403.139,393.743,512,256.004,512S5.874,403.139,0.265,266.751
	c70.843-33.136,159.552-52.769,255.74-52.769S440.902,233.615,511.744,266.751z"/>
<path style="fill:#E6E6E6;" d="M176.332,124.753l-66.168,76.036L81.39,212.943l-32.616,34.071l65.337-18.282
	c44.354-9.66,92.137-14.958,141.997-14.958c65.441,0,127.246,9.037,182.508,25.345l-35.526-34.902l-15.581,3.635l-73.128-88.606
	l-36.979,43.108l-60.04-70.012l-22.332,21.504l-18.594,10.803L176.332,124.753z"/>
<g>
	<path style="fill:#CCCCCC;" d="M316.667,216.579c43.108,3.74,84.035,11.53,121.845,22.644l-35.526-34.902l-15.581,3.635
		l-73.128-88.606l-1.558,16.205l20.359,48.51l-16.724,28.047l0.311,4.571L316.667,216.579L316.667,216.579z"/>
	<path style="fill:#CCCCCC;" d="M277.299,162.46l-60.04-70.012l-0.727,116.963L277.299,162.46z"/>
</g>
<path style="fill:#FF873D;" d="M96.971,225.72l0.623,56.3l6.856-0.623l-0.727-57.962l-6.648,2.285H96.971z"/>
<path style="fill:#00CC96;" d="M81.702,146.048l9.453-0.934l-11.53,21.918l9.66,0.519L71.73,189.78l18.178-4.259l-18.905,28.566
	l18.074-9.453L70.484,241.51l30.123-18.074l30.123,18.074l-18.594-36.875l18.074,9.453l-18.905-28.566l18.178,4.259l-17.555-22.229
	l9.66-0.519l-11.53-21.918l9.453,0.934l-19.009-21.295l-19.009,21.295L81.702,146.048L81.702,146.048z"/>
<path style="fill:#00AB7D;" d="M100.711,223.643l30.123,18.074l-18.594-36.875l18.074,9.557l-18.905-28.566l18.178,4.259
	l-17.555-22.229l9.66-0.519l-11.53-21.918l9.453,0.934l-19.009-21.295v98.889L100.711,223.643z"/>
<path style="fill:#FFD630;" d="M176.436,217.411l116.34-31.474L260.679,362.94l-148.437-23.165l64.299-122.364L176.436,217.411
	L176.436,217.411z"/>
<path style="fill:#F5BE18;" d="M292.776,185.937l107.822,153.838l-139.92,23.165L292.776,185.937z"/>
<path style="fill:#666666;" d="M302.644,226.343l-4.363,130.363l61.494-10.18L302.644,226.343z"/>
<path style="fill:#FF873D;" d="M404.545,228.317l0.519,53.599l6.544-0.519l-0.727-55.262L404.545,228.317z"/>
<path style="fill:#00CC96;" d="M389.899,152.385l9.037-0.831l-11.011,20.879l9.245,0.519l-16.724,21.191l17.347-4.051l-17.97,27.319
	l17.243-9.037l-17.658,35.109l28.774-17.139l28.774,17.139l-17.658-35.109l17.243,9.037l-17.97-27.319l17.347,4.051l-16.724-21.191
	l9.245-0.519l-11.011-20.879l9.037,0.831l-18.074-20.255l-18.074,20.255H389.899z"/>
<path style="fill:#00AB7D;" d="M407.974,226.343l28.774,17.139l-17.658-35.109l17.243,9.037l-17.97-27.319l17.347,4.051
	l-16.724-21.191l9.245-0.519l-11.011-20.879l9.037,0.831l-18.074-20.255v94.215H407.974z"/>
<path style="fill:#FFD630;" d="M302.644,226.343l107.51,100.135l-50.483,20.048L302.54,226.343H302.644z"/>
<path style="fill:#FF9A00;" d="M434.773,313.598l2.908,25.449c0,0,2.908,2.181,6.544,0.104l-0.831-25.969
	c0,0-5.92-0.935-8.518,0.415H434.773z"/>
<path style="fill:#FFFFFF;" d="M407.142,325.336l28.774-2.701l0,0c2.701,0.415,5.401,0.311,8.102-0.415l0.104,1.766
	c-2.701,1.142-5.401,1.246-8.102,0.415l0,0l-28.774,2.701c-0.727-0.208-1.038-1.351-0.208-1.766H407.142z"/>
<g>
</g>
<g>
</g>
<g>
</g>
<g>
</g>
<g>
</g>
<g>
</g>
<g>
</g>
<g>
</g>
<g>
</g>
<g>
</g>
<g>
</g>
<g>
</g>
<g>
</g>
<g>
</g>
<g>
</g>
</svg>
