<?xml version="1.0" encoding="iso-8859-1"?>
<!-- Uploaded to: SVG Repo, www.svgrepo.com, Generator: SVG Repo Mixer Tools -->
<!DOCTYPE svg PUBLIC "-//W3C//DTD SVG 1.1//EN" "http://www.w3.org/Graphics/SVG/1.1/DTD/svg11.dtd">
<svg height="800px" width="800px" version="1.1" id="Capa_1" xmlns="http://www.w3.org/2000/svg" xmlns:xlink="http://www.w3.org/1999/xlink" 
	 viewBox="0 0 50 50" xml:space="preserve">
<g>
	<path style="fill:#4FBA6F;" d="M21.423,48H1.577C0.706,48,0,47.294,0,46.423V26.577C0,25.706,0.706,25,1.577,25h19.846
		C22.294,25,23,25.706,23,26.577v19.846C23,47.294,22.294,48,21.423,48z"/>
	<path style="fill:#A4E869;" d="M17.366,31.524c5.236,7.719-3.124,16.079-10.843,10.843c-0.347-0.236-0.654-0.543-0.89-0.89
		c-5.236-7.719,3.124-16.079,10.843-10.843C16.824,30.869,17.131,31.176,17.366,31.524z"/>
	<path style="fill:#8697CB;" d="M48.423,48H28.577C27.706,48,27,47.294,27,46.423V26.577C27,25.706,27.706,25,28.577,25h19.846
		C49.294,25,50,25.706,50,26.577v19.846C50,47.294,49.294,48,48.423,48z"/>
	<path style="fill:#F0C419;" d="M30.423,25H10.577C9.706,25,9,24.294,9,23.423V3.577C9,2.706,9.706,2,10.577,2h19.846
		C31.294,2,32,2.706,32,3.577v19.846C32,24.294,31.294,25,30.423,25z"/>
	<polygon style="fill:#F3D55B;" points="28,13 20.5,21 13,13 20.5,5.444 	"/>
	<polygon style="fill:#B0D3F0;" points="46,43 38.5,43 31,43 38.5,28.444 	"/>
</g>
</svg>