<svg width="1031" height="730" viewBox="0 0 1031 730" fill="none" xmlns="http://www.w3.org/2000/svg">
<g clip-path="url(#clip0)">
<rect width="1030.01" height="729.86" fill="#FAFAFF"/>
<path opacity="0.1" d="M814.66 626.3C931.391 626.3 1026.02 607.908 1026.02 585.22C1026.02 562.532 931.391 544.14 814.66 544.14C697.929 544.14 603.3 562.532 603.3 585.22C603.3 607.908 697.929 626.3 814.66 626.3Z" fill="#6C63FF"/>
<g opacity="0.5">
<path opacity="0.5" d="M633.62 103.56C630.77 104.37 627.28 106.48 625.56 112.25C622.19 123.56 630.02 131.25 627.44 143.04C626.724 146.167 625.361 149.111 623.44 151.68C620.29 155.95 616.87 157.97 613.55 160.96C609.339 164.78 606.321 169.735 604.86 175.23C603.259 181.295 603.125 187.653 604.47 193.78C605.65 198.9 607.66 202.63 609.42 206.78C611.608 212.073 613.318 217.552 614.53 223.15C615.195 225.876 615.57 228.665 615.65 231.47C615.6 235.197 615.266 238.914 614.65 242.59L609.86 276.01C609.132 280.38 608.695 284.793 608.55 289.22C608.613 293.657 609.125 298.076 610.08 302.41C611.76 311.25 613.57 320.41 617.42 325.09C621.27 329.77 627.83 328.09 631.86 318.62C635.69 309.56 635.78 297.47 639.16 287.79C644.49 272.54 655.08 270.49 660.96 255.94C666.6 241.94 664.87 224.86 667.73 208.94C669.73 197.53 674.14 187.13 676.73 175.86C680.45 159.63 680.08 142.78 677.11 130.3C674.851 120.046 669.965 110.555 662.93 102.76C660.44 100.01 657.77 97.56 654.64 97.31C651.31 97.05 648.4 101.24 645.11 102.5C641.31 103.99 637.49 102.46 633.62 103.56Z" fill="#6C63FF"/>
<path opacity="0.5" d="M651.65 98.16C651.65 98.16 646.01 242.5 622.29 327.61" stroke="#535461" stroke-width="2" stroke-miterlimit="10"/>
<path opacity="0.5" d="M625.42 112.93C625.42 112.93 650.77 136.01 645.96 179.93" stroke="#535461" stroke-width="2" stroke-miterlimit="10"/>
<path opacity="0.5" d="M604.15 178.61C604.15 178.61 645.76 186.98 642.67 211.87" stroke="#535461" stroke-width="2" stroke-miterlimit="10"/>
<path opacity="0.5" d="M677.18 130C677.18 130 660.34 144.74 645.34 186.49" stroke="#535461" stroke-width="2" stroke-miterlimit="10"/>
<path opacity="0.5" d="M660.73 256.18C660.73 256.18 649.24 265.18 640.02 233.67" stroke="#535461" stroke-width="2" stroke-miterlimit="10"/>
<path opacity="0.5" d="M611.15 274.59C611.15 274.59 634.58 271.53 636.74 256.86" stroke="#535461" stroke-width="2" stroke-miterlimit="10"/>
</g>
<path d="M690.26 6.75C684.46 7.61 677.48 10.3 674.61 18.59C668.98 34.85 686.09 47.16 682.15 64.15C680.974 68.8256 678.499 73.0727 675.01 76.4C669.01 82.31 662.15 84.89 655.65 88.9C649.15 92.91 642.4 99.22 639.35 108.9C636.42 118.21 637.69 128.49 640.74 136.17C643.79 143.85 648.4 149.58 652.52 155.9C657.527 163.679 661.712 171.957 665.01 180.6C666.673 184.54 667.79 188.688 668.33 192.93C668.86 198.13 668.19 203.72 667.52 209.19L661.57 257.93C660.78 264.41 659.98 270.99 660.43 277.23C660.94 284.42 663.07 290.7 665.17 296.83C669.69 310.05 674.53 323.83 683.06 331.11C691.59 338.39 704.97 336.83 712.18 323.29C719.04 310.4 717.78 292.61 723.63 278.76C732.85 256.93 754.53 255.16 764.96 234.44C774.96 214.56 769.37 189.13 773.39 166.03C776.27 149.48 784.07 134.68 788.07 118.39C793.84 94.92 791.07 70.07 783.45 51.39C775.83 32.71 763.78 19.39 750.85 9.16001C745.37 4.81001 739.56 0.880007 733.05 0.160007C726.13 -0.609993 720.6 5.21 713.95 6.68C706.21 8.29 698.13 5.58 690.26 6.75Z" fill="#6C63FF"/>
<path d="M726.94 0.93C726.94 0.93 732.4 212.82 693.38 335.35" stroke="#535461" stroke-width="2" stroke-miterlimit="10"/>
<path d="M674.39 19.61C674.39 19.61 729.59 56.61 724.86 120.77" stroke="#535461" stroke-width="2" stroke-miterlimit="10"/>
<path d="M638.16 113.78C638.16 113.78 725.28 131.04 721.84 167.32" stroke="#535461" stroke-width="2" stroke-miterlimit="10"/>
<path d="M783.55 50.85C783.55 50.85 750.44 70.56 724.36 130.26" stroke="#535461" stroke-width="2" stroke-miterlimit="10"/>
<path d="M764.44 234.72C764.44 234.72 741.74 246.72 718.91 199.11" stroke="#535461" stroke-width="2" stroke-miterlimit="10"/>
<path d="M664.01 255.93C664.01 255.93 712.14 254.2 714.88 232.85" stroke="#535461" stroke-width="2" stroke-miterlimit="10"/>
<path d="M67.25 578.59C67.25 578.59 75.63 589.59 63.38 606.09C51.13 622.59 41.01 636.61 45.12 646.93C45.12 646.93 63.6 616.2 78.64 615.77C93.68 615.34 83.8 597.07 67.25 578.59Z" fill="#2965F1"/>
<path opacity="0.1" d="M67.25 578.59C67.9978 579.647 68.5904 580.805 69.01 582.03C83.69 599.27 91.5 615.36 77.4 615.77C64.26 616.15 48.5 639.64 44.72 645.58C44.8447 646.038 44.995 646.489 45.17 646.93C45.17 646.93 63.65 616.2 78.69 615.77C93.73 615.34 83.8 597.07 67.25 578.59Z" fill="black"/>
<path d="M82.83 592.56C82.83 596.42 82.4 599.56 81.83 599.56C81.26 599.56 80.83 596.43 80.83 592.56C80.83 588.69 81.37 590.56 81.9 590.56C82.43 590.56 82.83 588.7 82.83 592.56Z" fill="#FFD037"/>
<path d="M88.18 597.16C84.79 599.01 81.84 600.16 81.59 599.65C81.34 599.14 83.87 597.3 87.26 595.46C90.65 593.62 89.31 594.96 89.57 595.46C89.83 595.96 91.56 595.31 88.18 597.16Z" fill="#FFD037"/>
<path d="M23.01 578.59C23.01 578.59 14.63 589.59 26.88 606.09C39.13 622.59 49.23 636.6 45.14 646.92C45.14 646.92 26.66 616.19 11.62 615.76C-3.42 615.33 6.44 597.07 23.01 578.59Z" fill="#2965F1"/>
<path opacity="0.1" d="M23.01 578.59C22.2798 579.65 21.704 580.808 21.3 582.03C6.62 599.27 -1.19 615.36 12.91 615.77C26.05 616.15 41.81 639.64 45.59 645.58C45.4653 646.038 45.315 646.489 45.14 646.93C45.14 646.93 26.66 616.2 11.62 615.77C-3.42 615.34 6.44 597.07 23.01 578.59Z" fill="black"/>
<path d="M7.41 592.56C7.41 596.42 7.84 599.56 8.41 599.56C8.98 599.56 9.41 596.43 9.41 592.56C9.41 588.69 8.87 590.56 8.34 590.56C7.81 590.56 7.41 588.7 7.41 592.56Z" fill="#FFD037"/>
<path d="M2.06 597.16C5.45 599.01 8.4 600.16 8.65 599.65C8.9 599.14 6.37 597.3 2.98 595.46C-0.410003 593.62 0.93 594.96 0.67 595.46C0.41 595.96 -1.32 595.31 2.06 597.16Z" fill="#FFD037"/>
<path d="M10.08 645.49C10.08 645.49 33.51 644.77 40.57 639.74C47.63 634.71 76.57 628.74 78.36 636.74C80.15 644.74 113.57 676.85 87.12 677.06C60.67 677.27 25.66 672.94 18.61 668.65C11.56 664.36 10.08 645.49 10.08 645.49Z" fill="#A8A8A8"/>
<path opacity="0.2" d="M87.59 674.28C61.14 674.49 26.13 670.16 19.08 665.87C13.71 662.6 11.57 650.87 10.86 645.46H10.08C10.08 645.46 11.56 664.36 18.61 668.65C25.66 672.94 60.67 677.28 87.12 677.06C94.76 677 97.39 674.28 97.25 670.26C96.19 672.72 93.28 674.24 87.59 674.28Z" fill="black"/>
<path d="M982.36 574.04C984.193 572.546 985.528 570.53 986.19 568.26C986.69 565.96 985.71 563.21 983.51 562.37C981.05 561.43 978.42 563.13 976.43 564.86C974.44 566.59 972.15 568.55 969.54 568.18C970.881 566.964 971.885 565.421 972.453 563.702C973.021 561.983 973.133 560.146 972.78 558.37C972.667 557.634 972.356 556.943 971.88 556.37C970.51 554.91 968.04 555.54 966.4 556.69C961.2 560.35 959.75 567.41 959.72 573.77C959.2 571.48 959.64 569.09 959.62 566.77C959.6 564.45 958.96 561.77 956.98 560.55C955.752 559.89 954.373 559.563 952.98 559.6C950.64 559.51 948.04 559.75 946.44 561.46C944.44 563.58 944.97 567.15 946.7 569.46C948.43 571.77 951.05 573.26 953.47 574.88C955.409 576.033 957.064 577.609 958.31 579.49C958.457 579.751 958.577 580.026 958.67 580.31H973.32C976.602 578.637 979.643 576.528 982.36 574.04Z" fill="#A3B6FF"/>
<path opacity="0.1" d="M146.73 480.32C178.55 520.78 166.19 579.89 145.97 627.22C139.2 643.07 131.54 659.84 134.4 676.83C137.89 697.61 156.4 712.83 175.92 720.83C211.42 735.51 253.92 732.01 286.53 711.72C314.72 694.18 334.91 665.66 363.58 648.92C411.58 620.92 472.64 631.49 524.74 650.78C561.6 664.43 601.9 682.19 638.53 667.92C664.3 657.92 682.12 633.45 691.83 607.55C696.52 595.04 699.92 581.55 708.83 571.55C714.15 565.66 721.09 561.47 728.21 557.95C793.21 525.74 875.21 542.95 938.29 507.27C980.9 483.15 1008.18 437.64 1020.29 390.19C1032.4 342.74 1030.96 292.98 1027.89 244.12C1025.71 209.39 1021.8 172.32 999.61 145.51C976.14 117.16 935.85 106.61 899.44 112C863.03 117.39 830.01 136.69 801.01 159.31C764.72 187.58 731.07 222.79 686.51 234.25C656.17 242.05 624.25 237.78 592.95 236.31C540.63 233.84 488.3 239.31 436.27 245.31C386.46 251.07 336.27 257.41 288.84 273.61C255.26 285.08 228.34 305.89 196.63 320.43C175.96 329.91 153.42 332.53 133.86 344.6C109.75 359.47 87.66 385.34 93.86 415.6C99.68 444.41 129.83 458.85 146.73 480.32Z" fill="#6C63FF"/>
<path opacity="0.1" d="M552.35 480.3C788.546 480.3 980.02 461.908 980.02 439.22C980.02 416.532 788.546 398.14 552.35 398.14C316.154 398.14 124.68 416.532 124.68 439.22C124.68 461.908 316.154 480.3 552.35 480.3Z" fill="#6C63FF"/>
<path opacity="0.1" d="M223.66 717.3C340.391 717.3 435.02 698.908 435.02 676.22C435.02 653.532 340.391 635.14 223.66 635.14C106.929 635.14 12.3 653.532 12.3 676.22C12.3 698.908 106.929 717.3 223.66 717.3Z" fill="#6C63FF"/>
<path d="M439.72 426.41L436.37 431.28C436.37 431.28 440.02 436.15 440.37 436.76C440.72 437.37 451.02 436.46 451.02 436.46L451.93 432.81L450.41 428.55L439.72 426.41Z" fill="#4D4966"/>
<path d="M327.09 423.67L320.39 424.88L324.65 433.11L329.22 435.54L333.48 438.58L334.7 435.24L331.65 428.84L327.09 423.67Z" fill="#FDC2CC"/>
<path d="M436.68 344.52C436.68 344.52 472.3 353.04 478.99 362.52C478.99 362.52 485.08 367.7 478.99 377.13C472.9 386.56 464.38 407.88 464.38 407.88C464.38 407.88 458.29 428.58 455.86 430.1C453.43 431.62 439.42 432.84 438.2 427.1C438.2 427.1 446.11 414.62 446.11 408.83C446.11 403.04 459.2 375.65 459.2 375.65C459.2 375.65 429.37 372.3 419.93 374.43C410.49 376.56 424.2 341.17 436.68 344.52Z" fill="#565171"/>
<path opacity="0.1" d="M436.68 344.52C436.68 344.52 472.3 353.04 478.99 362.52C478.99 362.52 485.08 367.7 478.99 377.13C472.9 386.56 464.38 407.88 464.38 407.88C464.38 407.88 458.29 428.58 455.86 430.1C453.43 431.62 439.42 432.84 438.2 427.1C438.2 427.1 446.11 414.62 446.11 408.83C446.11 403.04 459.2 375.65 459.2 375.65C459.2 375.65 429.37 372.3 419.93 374.43C410.49 376.56 424.2 341.17 436.68 344.52Z" fill="black"/>
<path d="M429.37 352.74C429.3 354.51 429.11 356.5 428.84 358.64C426.89 374.14 420.54 397.19 420.54 397.19C420.54 397.19 414.15 410.89 412.32 419.72C410.49 428.55 398.01 430.72 398.01 430.72C398.01 430.72 363.91 434.72 356.91 433.16C349.91 431.6 338.91 437.73 333.47 436.81C328.03 435.89 324.64 423.11 324.64 423.11C334.082 423.165 343.425 421.194 352.04 417.33C366.04 410.94 386.14 413.98 386.14 413.98C387.639 413.545 389.034 412.807 390.237 411.813C391.441 410.819 392.429 409.59 393.14 408.2C395.27 403.63 395.27 375.93 394.66 374.1C390.66 362.1 390.99 354.4 392.14 349.91C392.525 347.949 393.391 346.114 394.66 344.57L429.37 352.74Z" fill="#565171"/>
<path opacity="0.1" d="M429.37 352.74C429.3 354.51 429.11 356.5 428.84 358.64C425.78 358.88 417.2 359.11 410.84 355.18C404.84 351.5 396.11 350.25 392.18 349.86C392.565 347.899 393.431 346.064 394.7 344.52L429.37 352.74Z" fill="black"/>
<path d="M433.58 348.93C432.16 352.93 429.98 357.62 429.98 357.62C429.98 357.62 418.72 359.14 410.8 354.27C402.88 349.4 390.1 348.79 390.1 348.79C392.17 347.52 393.57 343.66 394.44 340.28C394.926 338.369 395.306 336.433 395.58 334.48C395.58 334.48 433.02 342.09 434.58 343.31C435.16 343.79 434.54 346.21 433.58 348.93Z" fill="#E6E6F0"/>
<path d="M500.3 220.62L454.89 248.03L450.38 250.75V237.36L453.51 235.86L491.78 217.57C491.78 217.57 493.61 184.39 498.48 189.57C503.35 194.75 500.3 220.62 500.3 220.62Z" fill="#F8D49F"/>
<path opacity="0.1" d="M454.89 248.03L450.38 250.75V237.36L453.51 235.86C453.717 239.941 454.178 244.006 454.89 248.03Z" fill="black"/>
<path d="M419.94 252.93L452.51 234.06C452.51 234.06 453.12 252.33 456.77 255.06C456.77 255.06 443.38 259.06 438.2 267.54L419.94 252.93Z" fill="#264DE4"/>
<path d="M500.01 269.02C500.01 269.02 484.52 275.77 474.26 278.25C471.951 278.946 469.537 279.224 467.13 279.07C460.13 277.85 468.96 269.07 468.96 269.07L472.64 268.5L492.4 265.42C492.4 265.42 494.53 234.98 498.18 237.42C501.83 239.86 500.01 269.02 500.01 269.02Z" fill="#F8D49F"/>
<path d="M434.55 241.62C434.55 241.62 421.46 251.36 426.33 263.54C431.2 275.72 401.06 256.23 401.06 256.23C401.06 256.23 410.8 241.62 412.93 230.66C415.06 219.7 434.55 241.62 434.55 241.62Z" fill="#F8D49F"/>
<path opacity="0.1" d="M433.58 348.93C427.918 346.798 422.001 345.419 415.98 344.83C407.18 343.83 399.12 342.14 394.45 340.28C394.936 338.369 395.316 336.433 395.59 334.48C395.59 334.48 433.03 342.09 434.59 343.31C435.16 343.79 434.54 346.21 433.58 348.93Z" fill="black"/>
<path opacity="0.1" d="M474.25 278.25C471.941 278.946 469.527 279.224 467.12 279.07C460.12 277.85 468.95 269.07 468.95 269.07L472.63 268.5C474.17 270.87 475.74 274.57 474.25 278.25Z" fill="black"/>
<path d="M413.24 247.1C413.24 247.1 401.37 246.8 397.11 251.67C392.85 256.54 393.76 269.67 393.76 269.67C393.76 269.67 392.87 295.96 399.54 310.67C399.76 311.145 399.785 311.687 399.61 312.18C399.54 312.36 399.54 312.25 399.54 312.25C399.54 312.25 395.28 331.43 391.02 334.78C386.76 338.13 400.15 342.09 416.02 343.91C431.89 345.73 438.24 350.3 438.24 350.3C438.24 350.3 440.98 347.3 441.24 340.56C441.5 333.82 437.01 284.85 437.01 284.85C437.01 284.85 453.75 289.11 463.8 283.94C463.8 283.94 468.37 286.38 472.63 279.68C476.89 272.98 469.63 265.68 469.63 265.68C469.63 265.68 462.93 272.38 444.36 263.55C425.79 254.72 419.01 246.8 413.24 247.1Z" fill="#264DE4"/>
<path d="M322.22 424.28H318.57V429.46L322.22 437.68C322.22 437.68 327.09 438.59 327.4 438.59C327.71 438.59 331.66 437.68 331.66 437.68L332.88 435.55C332.88 435.55 319.48 430.36 322.22 424.28Z" fill="#E6E6F0"/>
<path d="M436.68 429.15L431.2 441.33L454.34 452.33L472.61 452.94C472.61 452.94 474.13 448.68 468.04 446.55L463.17 445.64C463.17 445.64 456.78 434.07 456.17 428.64C456.17 428.64 450.08 429.86 449.17 434.42C449.16 434.32 440.64 438.58 436.68 429.15Z" fill="#4D4966"/>
<path d="M319.48 423.06L317.62 424.58L309.44 431.28L328.31 456.28C328.31 456.28 338.96 460.85 343.84 456.28C343.84 456.28 346.84 453.28 340.19 450.8C340.19 450.8 335.01 451.71 335.01 446.54C335.01 441.37 336.23 435.89 338.01 434.67C338.01 434.67 333.44 433.15 332.23 434.37C331.299 435.396 330.481 436.519 329.79 437.72C329.79 437.72 318.87 433.41 319.48 423.06Z" fill="#B45181"/>
<path opacity="0.1" d="M412.33 231.27C412.021 232.814 411.613 234.338 411.11 235.83C412.691 239.634 415.693 242.671 419.478 244.298C423.263 245.924 427.532 246.011 431.38 244.54C432.183 243.712 433.041 242.94 433.95 242.23C433.95 242.23 414.46 220.31 412.33 231.27Z" fill="black"/>
<path opacity="0.1" d="M410.65 271.93C410.65 271.93 420.09 284.41 433.79 284.72Z" fill="black"/>
<g opacity="0.1">
<path opacity="0.1" d="M467.07 284.15C466.878 284.096 466.69 284.026 466.51 283.94C466.217 284.093 465.917 284.237 465.61 284.37C466.104 284.36 466.595 284.286 467.07 284.15Z" fill="black"/>
<path opacity="0.1" d="M470.31 266.93C469.979 266.505 469.625 266.097 469.25 265.71C469.25 265.71 467.25 267.71 462.31 268.09C465.031 268.36 467.777 267.962 470.31 266.93V266.93Z" fill="black"/>
<path opacity="0.1" d="M439.72 284.85L439.78 285.5C443.796 286.244 447.877 286.579 451.96 286.5C447.836 286.35 443.737 285.797 439.72 284.85V284.85Z" fill="black"/>
<path opacity="0.1" d="M418.72 343.93C402.89 342.1 389.5 338.15 393.72 334.8C397.94 331.45 402.24 312.27 402.24 312.27C402.24 312.27 402.24 312.38 402.31 312.2C402.485 311.707 402.46 311.165 402.24 310.69C395.57 295.94 396.46 269.69 396.46 269.69C396.46 269.69 395.55 256.6 399.81 251.69C402.98 248.06 410.37 247.31 413.94 247.16C413.607 247.134 413.273 247.134 412.94 247.16C412.94 247.16 401.07 246.86 396.81 251.73C392.55 256.6 393.46 269.73 393.46 269.73C393.46 269.73 392.57 296.02 399.24 310.73C399.46 311.205 399.485 311.747 399.31 312.24C399.24 312.42 399.24 312.31 399.24 312.31C399.24 312.31 395.01 331.43 390.71 334.78C386.41 338.13 399.84 342.09 415.71 343.91C431.58 345.73 437.93 350.3 437.93 350.3C438.249 349.918 438.53 349.506 438.77 349.07C435.68 347.58 429.32 345.13 418.72 343.93Z" fill="black"/>
</g>
<path d="M426.33 244.97C435.073 244.97 442.16 237.883 442.16 229.14C442.16 220.397 435.073 213.31 426.33 213.31C417.587 213.31 410.5 220.397 410.5 229.14C410.5 237.883 417.587 244.97 426.33 244.97Z" fill="#F8D49F"/>
<path opacity="0.1" d="M448.86 222.06C447.55 225.34 443.64 226.58 440.21 227.43C435.31 228.63 430.03 229.81 425.34 227.95C424.732 227.609 424.031 227.472 423.34 227.56C422.783 227.783 422.318 228.189 422.02 228.71C416.85 236.07 417.69 245.88 416.35 254.78C415.93 257.55 415.22 260.41 413.35 262.48C409.71 266.48 402.84 266.33 399.49 270.58C397.28 273.38 397.26 277.27 397.28 280.84C397.28 284.647 397.247 288.457 397.18 292.27C397.12 294.77 397 297.36 395.87 299.58C393.95 303.34 389.67 305.13 385.72 306.58C383.26 307.5 380.72 308.43 378.08 308.18C375.44 307.93 372.8 306.18 372.46 303.54C371.99 299.96 375.68 297.46 378.22 294.88C382.28 290.77 383.95 284.79 384.1 279.01C384.243 276.676 383.902 274.337 383.1 272.14C382.17 269.87 380.51 267.96 379.51 265.72C376.43 258.82 380.23 250.84 384.78 244.8C389.33 238.76 394.92 232.87 395.89 225.38C395.975 223.759 396.206 222.149 396.58 220.57C397.28 218.39 398.94 212.37 400.77 210.99C403.7 208.783 407.139 207.352 410.77 206.83C413.58 206.42 416.45 206.57 419.24 206.03C422.5 205.4 425.53 203.85 428.79 203.27C435.84 202.02 443.49 210.21 446.58 216.67C447.43 218.65 449.66 220.05 448.86 222.06Z" fill="black"/>
<path d="M448.86 221.45C447.55 224.73 443.64 225.97 440.21 226.82C435.31 228.02 430.03 229.2 425.34 227.34C424.732 226.999 424.031 226.862 423.34 226.95C422.783 227.173 422.318 227.579 422.02 228.1C416.85 235.46 417.69 245.27 416.35 254.17C415.93 256.94 415.22 259.8 413.35 261.87C409.71 265.87 402.84 265.72 399.49 269.97C397.28 272.77 397.26 276.66 397.28 280.23C397.28 284.037 397.247 287.847 397.18 291.66C397.12 294.16 397 296.75 395.87 298.97C393.95 302.73 389.67 304.52 385.72 305.97C383.26 306.89 380.72 307.82 378.08 307.57C375.44 307.32 372.8 305.57 372.46 302.93C371.99 299.35 375.68 296.85 378.22 294.27C382.28 290.16 383.95 284.18 384.1 278.4C384.243 276.066 383.902 273.727 383.1 271.53C382.17 269.26 380.51 267.35 379.51 265.11C376.43 258.21 380.23 250.23 384.78 244.19C389.33 238.15 394.92 232.26 395.89 224.77C395.975 223.149 396.206 221.539 396.58 219.96C397.28 217.78 398.94 211.76 400.77 210.38C403.7 208.173 407.139 206.742 410.77 206.22C413.58 205.81 416.45 205.96 419.24 205.42C422.5 204.79 425.53 203.24 428.79 202.66C435.84 201.41 443.49 209.6 446.58 216.06C447.43 218.04 449.66 219.44 448.86 221.45Z" fill="#5C3816"/>
<path d="M500.01 191.02H763.18V454.17H500.01V191.02Z" fill="#F7DF1E"/>
<path d="M569.22 410.93L589.36 398.74C593.25 405.63 596.78 411.46 605.26 411.46C613.39 411.46 618.51 408.28 618.51 395.92V311.83H643.24V396.26C643.24 421.87 628.24 433.53 606.32 433.53C586.54 433.53 575.06 423.28 569.23 410.92L569.22 410.93ZM656.67 408.27L676.8 396.61C682.1 405.27 688.99 411.61 701.18 411.61C711.43 411.61 717.96 406.49 717.96 399.42C717.96 390.94 711.25 387.94 699.96 382.99L693.78 380.34C675.94 372.75 664.1 363.21 664.1 343.07C664.1 324.52 678.23 310.39 700.31 310.39C716.03 310.39 727.31 315.87 735.46 330.17L716.21 342.54C711.97 334.94 707.38 331.94 700.31 331.94C693.07 331.94 688.47 336.53 688.47 342.54C688.47 349.96 693.06 352.96 703.66 357.54L709.84 360.19C730.84 369.19 742.7 378.38 742.7 399.05C742.7 421.31 725.21 433.5 701.7 433.5C678.7 433.5 663.9 422.5 656.7 408.24" fill="#303030"/>
<path d="M878.62 600.21C878.62 600.21 868.35 600.93 862.01 589.93C860.771 587.715 859.306 585.634 857.64 583.72C855.593 580.364 854.53 576.501 854.57 572.57C854.92 564.42 846.42 519.78 846.42 519.78C846.42 519.78 847.48 502.78 838.98 492.15C833.38 485.15 825.33 465.15 820.48 452.23C820.805 452.52 821.197 452.726 821.62 452.83L821.42 451.72H821.62L819.11 437.93C815.456 433.729 812.375 429.062 809.95 424.05L810.52 423.93L818.04 422.35C818.04 422.35 830.26 404.98 831.04 396.44H832.04H833.45C844.761 396.378 856.067 396.969 867.31 398.21V398.21C867.31 398.16 867.23 397.94 867.13 397.59C866.654 395.871 866.287 394.125 866.03 392.36H866.73L873.73 391.9C873.73 391.9 897.82 364.98 888.96 360.02C880.1 355.06 870.89 382.34 870.89 382.34L867.89 382.88L867.08 383.03C867.16 382.91 867.24 382.8 867.33 382.69C867.42 382.58 828.01 380.93 821.94 371.35C821.94 371.35 804.58 357.53 803.87 348.35C803.742 346.445 803.092 344.613 801.992 343.054C800.891 341.494 799.382 340.268 797.63 339.51C795.485 338.486 793.11 338.041 790.74 338.22L782.61 338.78L783.18 339.78H782.95C782.44 338.611 782.012 337.408 781.67 336.18H781.84C781.78 335.93 781.73 335.68 781.68 335.43C784.172 334.842 786.52 333.761 788.586 332.249C790.652 330.737 792.393 328.826 793.707 326.629C795.021 324.432 795.881 321.994 796.235 319.459C796.589 316.924 796.431 314.343 795.77 311.87C796.565 311.972 797.372 311.948 798.16 311.8C801.16 311.19 803.27 308.15 803.35 305.11C803.35 304.91 803.35 304.71 803.35 304.52C803.35 304.52 803.35 304.44 803.35 304.4C803.32 302.872 802.95 301.371 802.267 300.004C801.583 298.638 800.604 297.44 799.4 296.5C797.78 295.15 795.84 294.19 794.4 292.69C792.65 290.9 791.69 288.5 790.33 286.39C788.052 282.9 784.673 280.271 780.73 278.92C777.8 277.92 774.2 277.82 771.95 279.92C770.79 281.01 770.12 282.59 768.82 283.51C766.95 284.85 764.41 284.45 762.12 284.72C760.046 285.039 758.083 285.864 756.404 287.121C754.724 288.378 753.38 290.03 752.49 291.93C751.367 294.309 750.826 296.921 750.91 299.55C750.885 301.354 751.1 303.153 751.55 304.9C751.99 306.64 752.64 308.32 753.12 310.06C754.12 313.66 754.35 317.45 755.5 321C756.273 323.635 757.815 325.978 759.93 327.73L759.59 329.19C759.37 329.19 753.85 330.42 750.04 338.75C747.04 345.32 736.83 352.1 732.34 354.84C731.503 355.352 730.776 356.027 730.202 356.823C729.629 357.62 729.22 358.523 729 359.48C728.569 361.412 728.377 363.391 728.43 365.37C728.35 369.64 729.24 375.55 732.67 383.04C740.46 400.04 746.13 407.48 746.13 407.48C746.13 407.48 746.56 412.69 746.59 418.18C746.59 422.27 746.29 426.34 745.42 428.38C744.68 430.1 744.42 434.49 744.48 439.51C744.48 449.13 745.42 461.68 745.42 461.68C745.42 461.68 748.13 462.2 752.32 462.81L754.93 508.73C755.258 514.291 753.472 519.77 749.93 524.07C748.099 526.331 745.985 528.348 743.64 530.07C736.2 535.38 720.26 591.36 720.26 591.36C720.26 591.36 721.04 591.36 722.32 591.51L717.42 605.18C717.42 605.18 737 620.18 748.91 616.08C750.2 615.66 751.554 615.47 752.91 615.52C755.26 615.52 760.29 613.66 757.49 611.21C752.083 606.231 746.984 600.928 742.22 595.33C742.603 595.517 742.971 595.735 743.32 595.98V595.87L743.49 595.98C743.49 595.98 743.49 595.43 743.62 594.53L743.45 594.47C743.81 590.79 744.95 581.47 747.21 580.39C750.04 578.97 770.95 537.52 770.95 537.52L791.85 483.67C791.85 483.67 808.5 512.37 822.67 517.32V529.32C822.67 529.32 830.46 564.75 833.3 568.64C836.14 572.53 833.3 588.12 833.3 588.12C833.86 588.761 834.502 589.326 835.21 589.8L832.94 602.64C832.94 602.64 849.24 601.93 876.87 610.43C876.85 610.48 887.48 605.88 878.62 600.21ZM813.44 414.93L809.99 415.79L809.31 415.96C809.24 415.53 809.19 415.28 809.19 415.28C808.398 415.637 807.547 415.844 806.68 415.89C805.457 412.016 804.751 407.998 804.58 403.94C803.419 399.083 802.713 394.128 802.47 389.14C802.47 386.56 802.9 384.31 803.87 383.04L805.02 383.13L805.82 383.89L805.88 383.94L806.29 384.31L806.72 384.69L806.79 384.75L807.25 385.16L807.33 385.23L807.8 385.63L808.33 386.07L808.45 386.17L809.01 386.62L809.56 387.06L809.69 387.16L810.3 387.62L810.43 387.71L811.01 388.14L811.11 388.21L811.77 388.68L811.93 388.79L812.63 389.27H812.69L813.37 389.72L813.53 389.83L814.26 390.3L814.42 390.4L815.1 390.82L815.23 390.9L816.01 391.36L816.2 391.47L817.01 391.92H817.07L817.86 392.34L818.05 392.44L818.89 392.86L819.06 392.94L819.84 393.3L819.99 393.37L820.87 393.75L821.08 393.84L821.99 394.21C816.34 400.43 813.44 414.93 813.44 414.93Z" fill="url(#paint0_linear)"/>
<path d="M726.06 583.09L719.49 601.42C719.49 601.42 737.49 615.22 749.19 612.36C750.953 611.921 752.749 611.63 754.56 611.49C756.98 611.31 761.15 609.54 758.56 607.3C750.26 600.04 739.19 586.55 739.19 586.55L726.06 583.09Z" fill="#4F4D59"/>
<path d="M835.35 581.36L832.24 599C832.24 599 848.15 598.31 875.13 606.61C875.13 606.61 885.51 602.11 876.86 596.61C876.86 596.61 866.86 597.3 860.61 586.61C854.36 575.92 850.61 577.27 850.61 577.27L835.35 581.36Z" fill="#4F4D59"/>
<path d="M753.01 453.4L756.01 507.08C756.339 512.8 754.443 518.425 750.72 522.78C749.038 524.779 747.12 526.569 745.01 528.11C737.75 533.3 722.18 587.94 722.18 587.94C722.18 587.94 739.82 588.94 744.66 592.44C744.66 592.44 745.66 578.61 748.46 577.22C751.26 575.83 771.63 535.37 771.63 535.37L792.04 482.8C792.04 482.8 808.29 510.8 822.13 515.66V527.42C822.13 527.42 829.74 562.01 832.51 565.81C835.28 569.61 832.51 584.81 832.51 584.81C832.51 584.81 840.51 594.81 858.79 584.12C858.79 584.12 852.91 577.55 853.26 569.59C853.61 561.63 845.26 518.06 845.26 518.06C845.26 518.06 846.26 501.46 838 491.06C829.74 480.66 816.01 440.93 816.01 440.93L806.49 420.45L753.01 453.4Z" fill="#424242"/>
<g opacity="0.1">
<path opacity="0.1" d="M725.54 587.93C725.54 587.93 741.1 533.29 748.37 528.1C750.6 526.465 752.616 524.557 754.37 522.42C757.919 518.124 759.706 512.642 759.37 507.08L756.32 453.39L807.32 421.95L806.63 420.46L753.21 453.4L756.26 507.09C756.596 512.652 754.809 518.134 751.26 522.43C749.506 524.567 747.49 526.475 745.26 528.11C738.01 533.29 722.43 587.93 722.43 587.93C722.43 587.93 740.07 588.93 744.91 592.43C744.91 592.43 744.91 591.89 745.04 591.02C738.23 588.68 725.54 587.93 725.54 587.93Z" fill="black"/>
<path opacity="0.1" d="M835.87 584.82C835.87 584.82 838.64 569.6 835.87 565.82C833.1 562.04 825.49 527.43 825.49 527.43V515.65C811.66 510.81 795.4 482.79 795.4 482.79L794.2 485.93C798.89 493.37 811.4 511.83 822.39 515.67V527.43C822.39 527.43 830 562.02 832.77 565.82C835.54 569.62 832.77 584.82 832.77 584.82C832.77 584.82 836.63 589.68 845.15 589.02C838.78 588.49 835.87 584.82 835.87 584.82Z" fill="black"/>
</g>
<path d="M872.01 393.22L865.22 393.67L861.64 393.91V385.26L866.34 384.41L869.25 383.88C869.25 383.88 878.25 357.25 886.89 362.09C895.53 366.93 872.01 393.22 872.01 393.22Z" fill="#714B4F"/>
<path d="M763.07 321.93C763.07 321.93 758.57 339.22 757.19 349.93C755.81 360.64 789.35 352.01 789.35 352.01C789.35 352.01 776.55 336.45 783.82 328.15L763.07 321.93Z" fill="#F8D49F"/>
<path d="M799.38 393.93L800.07 400.5L789.35 399.81L778.63 390.47L767.91 360.37L761.01 349.64L755.82 343.07L757.9 335.07C757.9 335.07 758.85 335.9 760.45 337.12C765.72 341.12 778.07 349.53 787.1 347.21C787.517 347.105 787.928 346.974 788.33 346.82L801.82 369.99L799.38 393.93Z" fill="white"/>
<path opacity="0.1" d="M760.65 333.04C760.65 333.04 755.12 334.04 751.31 342.38C748.39 348.76 738.51 355.38 734.1 358.05C733.259 358.564 732.529 359.241 731.953 360.041C731.378 360.841 730.969 361.749 730.75 362.71C729.86 366.65 729.52 374 734.36 384.57C741.97 401.17 747.5 408.43 747.5 408.43C747.5 408.43 748.88 425.03 746.81 429.87C744.74 434.71 746.81 461.34 746.81 461.34C746.81 461.34 783.12 468.26 795.23 461.34C807.34 454.42 805.61 427.79 805.61 427.79C805.61 427.79 817.02 452 821.17 452.69L818.75 439.2C818.75 439.2 805.26 424.67 804.57 406C804.57 406 800.42 389.05 803.88 384.56C803.88 384.56 862.33 389.4 865.79 385.25C865.79 385.25 827.4 383.52 821.52 374.18C821.52 374.18 804.57 360.69 803.88 351.7C803.779 350.012 803.25 348.378 802.342 346.952C801.434 345.526 800.177 344.355 798.69 343.55C796.338 342.212 793.638 341.609 790.94 341.82L783.13 342.36C783.13 342.36 796.62 366.22 795.93 369.36C795.24 372.5 796.62 397.72 796.62 397.72C796.62 397.72 781.01 364.17 774.14 360.37C767.27 356.57 759.26 340.93 759.26 340.93L760.64 333.03" fill="black"/>
<path opacity="0.1" d="M799.38 393.93L800.07 400.5L789.35 399.81L778.63 390.47L767.91 360.37L761.01 349.64L755.82 343.07L757.9 335.07C757.9 335.07 758.85 335.9 760.45 337.12L759.97 339.85C759.97 339.85 767.97 355.47 774.84 359.28C781.71 363.09 797.32 396.63 797.32 396.63C797.32 396.63 795.94 371.38 796.63 368.27C797.1 366.16 791.04 354.5 787.1 347.21C787.517 347.105 787.928 346.974 788.33 346.82L801.82 369.99L799.38 393.93Z" fill="black"/>
<path opacity="0.1" d="M865.22 393.67L861.64 393.91V385.26L866.34 384.41C864.7 386.58 864.76 390.42 865.22 393.67Z" fill="black"/>
<path d="M760.65 332.01C760.65 332.01 755.12 333.01 751.31 341.35C748.39 347.73 738.51 354.35 734.1 357.02C733.259 357.534 732.529 358.211 731.953 359.011C731.378 359.811 730.969 360.719 730.75 361.68C729.86 365.62 729.52 372.97 734.36 383.54C741.97 400.14 747.5 407.4 747.5 407.4C747.5 407.4 748.88 424 746.81 428.84C744.74 433.68 746.81 460.31 746.81 460.31C746.81 460.31 783.12 467.23 795.23 460.31C807.34 453.39 805.61 426.76 805.61 426.76C805.61 426.76 817.01 450.93 821.17 451.67L818.75 438.18C818.75 438.18 805.26 423.65 804.57 404.98C804.57 404.98 800.42 388.03 803.88 383.54C803.88 383.54 817.37 398.07 832.59 397.72C843.681 397.653 854.766 398.231 865.79 399.45C865.79 399.45 862.33 388.38 865.79 384.23C865.79 384.23 827.4 382.5 821.52 373.16C821.52 373.16 804.57 359.67 803.88 350.68C803.779 348.992 803.25 347.358 802.342 345.932C801.434 344.506 800.177 343.335 798.69 342.53C796.338 341.192 793.638 340.589 790.94 340.8L783.13 341.34C783.13 341.34 796.62 365.2 795.93 368.34C795.24 371.48 796.62 396.7 796.62 396.7C796.62 396.7 781.01 363.13 774.14 359.33C767.27 355.53 759.26 339.93 759.26 339.93L760.64 332.03" fill="#27409D"/>
<path opacity="0.1" d="M753.01 368.32C753.01 368.32 761.31 396.32 766.15 399.79C770.99 403.26 800.39 420.89 809.04 416.74C809.04 416.74 811.12 427.12 808.04 429.54C808.04 429.54 775.79 428.28 775.53 428.16C775.53 428.16 754.43 425.39 750.97 415.02C747.51 404.65 743.36 387.02 743.36 387.02L753.01 368.32Z" fill="black"/>
<path d="M797.31 399.97C797.978 399.97 798.52 399.195 798.52 398.24C798.52 397.285 797.978 396.51 797.31 396.51C796.642 396.51 796.1 397.285 796.1 398.24C796.1 399.195 796.642 399.97 797.31 399.97Z" fill="#BA7855"/>
<path d="M800.76 412.07C801.428 412.07 801.97 411.295 801.97 410.34C801.97 409.385 801.428 408.61 800.76 408.61C800.092 408.61 799.55 409.385 799.55 410.34C799.55 411.295 800.092 412.07 800.76 412.07Z" fill="#BA7855"/>
<g opacity="0.1">
<path opacity="0.1" d="M749.24 459.93C749.24 459.93 747.16 433.3 749.24 428.46C751.32 423.62 749.93 407.02 749.93 407.02C749.93 407.02 744.4 399.76 736.79 383.16C731.94 372.59 732.29 365.24 733.18 361.3C733.399 360.339 733.808 359.431 734.383 358.631C734.959 357.831 735.689 357.154 736.53 356.64C740.94 353.94 750.81 347.35 753.74 340.97C755.89 336.29 758.58 333.92 760.52 332.74L760.65 331.98C760.65 331.98 755.12 332.98 751.31 341.32C748.39 347.7 738.51 354.32 734.1 356.99C733.259 357.504 732.529 358.181 731.953 358.981C731.378 359.781 730.969 360.689 730.75 361.65C729.86 365.59 729.52 372.94 734.36 383.51C741.97 400.11 747.5 407.37 747.5 407.37C747.5 407.37 748.88 423.97 746.81 428.81C744.74 433.65 746.81 460.28 746.81 460.28C746.81 460.28 772.75 465.22 788.09 462.57C772.6 464.42 749.24 459.93 749.24 459.93Z" fill="black"/>
<path opacity="0.1" d="M795.92 368.32C795.45 370.45 795.92 382.98 796.31 390.66C797.98 394.07 799.03 396.34 799.03 396.34C799.03 396.34 797.65 371.09 798.34 367.98C799 364.98 786.85 343.32 785.64 341.18L783.12 341.35C783.12 341.35 796.62 365.21 795.92 368.32Z" fill="black"/>
<path opacity="0.1" d="M835.01 397.37C819.79 397.72 806.3 383.19 806.3 383.19C805.895 383.753 805.6 384.388 805.43 385.06C809.43 388.78 820.43 397.99 832.59 397.71C843.681 397.643 854.766 398.221 865.79 399.44C865.79 399.44 865.72 399.21 865.61 398.82C855.445 397.769 845.229 397.285 835.01 397.37Z" fill="black"/>
<path opacity="0.1" d="M808.01 426.42C808.01 426.42 808.15 428.58 808.07 431.82C811.67 438.96 818.22 451.17 821.15 451.66L820.64 448.82C815.61 442.5 808.01 426.42 808.01 426.42Z" fill="black"/>
</g>
<path d="M817.71 422.93L810.36 424.48L804.56 425.7L807.67 417.05L809.84 416.51L813.21 415.67C813.21 415.67 818.05 391.46 827.74 393.19C837.43 394.92 817.71 422.93 817.71 422.93Z" fill="#F8D49F"/>
<path opacity="0.1" d="M810.37 424.51L804.57 425.73L807.68 417.08L809.85 416.54C810.331 419.168 810.505 421.842 810.37 424.51Z" fill="black"/>
<path d="M753.01 367.63C753.01 367.63 761.31 395.63 766.15 399.1C770.99 402.57 800.39 420.2 809.04 416.05C809.04 416.05 811.12 426.43 808.04 428.85C808.04 428.85 775.79 427.59 775.53 427.47C775.53 427.47 754.43 424.7 750.97 414.33C747.51 403.96 743.36 386.33 743.36 386.33L753.01 367.63Z" fill="#27409D"/>
<path opacity="0.1" d="M763.41 322.67C763.41 322.67 762.71 325.38 761.77 329.32C763.685 332.948 766.741 335.844 770.466 337.561C774.191 339.278 778.378 339.721 782.38 338.82C781.55 335.27 781.73 331.68 784.16 328.9L763.41 322.67Z" fill="black"/>
<path d="M777.94 338.58C788.257 338.58 796.62 330.217 796.62 319.9C796.62 309.583 788.257 301.22 777.94 301.22C767.623 301.22 759.26 309.583 759.26 319.9C759.26 330.217 767.623 338.58 777.94 338.58Z" fill="#F8D49F"/>
<path opacity="0.1" d="M794.16 314.76C795.513 315.138 796.93 315.226 798.32 315.02C799.759 314.63 801.032 313.782 801.945 312.604C802.858 311.425 803.362 309.981 803.38 308.49C803.354 306.999 802.994 305.533 802.328 304.199C801.662 302.865 800.706 301.697 799.53 300.78C797.95 299.46 796.06 298.53 794.61 297.06C792.9 295.31 791.96 292.97 790.61 290.91C788.386 287.504 785.089 284.938 781.24 283.62C778.38 282.62 774.87 282.54 772.67 284.62C771.54 285.69 770.88 287.22 769.62 288.13C767.79 289.43 765.31 289.05 763.08 289.31C761.06 289.617 759.146 290.416 757.506 291.637C755.867 292.857 754.553 294.462 753.68 296.31C751.974 300.078 751.648 304.326 752.76 308.31C753.19 310.01 753.83 311.65 754.29 313.31C755.29 316.83 755.49 320.52 756.61 323.99C757.73 327.46 760.04 330.86 763.54 331.9C763.264 328.005 764.034 324.107 765.77 320.61C766.056 319.845 766.62 319.217 767.35 318.85C767.973 318.69 768.627 318.69 769.25 318.85C773.636 319.499 778.111 318.593 781.9 316.29C783.23 315.49 785.3 312.73 786.71 312.46C788.53 312.15 792.26 314.34 794.16 314.76Z" fill="black"/>
<path d="M794.16 314.07C795.513 314.448 796.93 314.536 798.32 314.33C799.759 313.94 801.032 313.092 801.945 311.914C802.858 310.735 803.362 309.291 803.38 307.8C803.354 306.309 802.994 304.843 802.328 303.509C801.662 302.175 800.706 301.007 799.53 300.09C797.95 298.77 796.06 297.84 794.61 296.37C792.9 294.62 791.96 292.28 790.61 290.22C788.386 286.814 785.089 284.248 781.24 282.93C778.38 281.93 774.87 281.85 772.67 283.93C771.54 285 770.88 286.53 769.62 287.44C767.79 288.74 765.31 288.36 763.08 288.62C761.06 288.927 759.146 289.726 757.506 290.947C755.867 292.167 754.553 293.772 753.68 295.62C751.974 299.388 751.648 303.636 752.76 307.62C753.19 309.32 753.83 310.96 754.29 312.62C755.29 316.14 755.49 319.83 756.61 323.3C757.73 326.77 760.04 330.17 763.54 331.21C763.272 327.317 764.049 323.423 765.79 319.93C766.076 319.165 766.64 318.537 767.37 318.17C767.993 318.01 768.647 318.01 769.27 318.17C773.656 318.819 778.131 317.913 781.92 315.61C783.25 314.81 785.32 312.05 786.73 311.78C788.53 311.46 792.26 313.65 794.16 314.07Z" fill="#60595B"/>
<path d="M980.51 252.42L965.27 423.12L896.77 442.12L828.46 423.12L813.24 252.42H980.51Z" fill="#E44D26"/>
<path d="M896.87 427.6L952.22 412.26L965.22 266.38H896.87V427.6Z" fill="#F16529"/>
<path d="M867.25 308.26H896.87V287.32H844.37L844.87 292.94L850.02 350.64H896.88V329.7H869.17L867.25 308.26ZM872.01 361.11H851.01L853.94 393.99L896.78 405.93H896.88V384.08H896.79L873.47 377.78L872.01 361.11Z" fill="#EBEBEB"/>
<path d="M828.81 206.02H839.45V216.53H849.18V206.02H859.82V237.86H849.18V227.2H839.45V237.86H828.81V206.02ZM873.81 216.58H864.44V206.02H893.82V216.58H884.45V237.86H873.82V216.58H873.81ZM898.49 206.02H909.59L916.42 217.21L923.24 206.02H934.34V237.86H923.74V222.08L916.42 233.4H916.24L908.91 222.08V237.86H898.49V206.02ZM939.63 206.02H950.27V227.33H965.27V237.85H939.66V206.02H939.63Z" fill="#303030"/>
<path d="M896.8 350.64H922.58L920.15 377.8L896.8 384.1V405.93L939.73 394.03L940.04 390.49L944.96 335.36L945.47 329.74H896.8V350.68V350.64ZM896.8 308.21V308.26H947.38L947.8 303.55L948.8 292.93L949.3 287.31H896.8V308.2V308.21Z" fill="white"/>
<path d="M366.73 378.44C364.78 372.73 361.97 365.44 359.73 363.78C359.595 363.672 359.447 363.581 359.29 363.51H359.01V356.46L353.75 357.3C352.906 354.752 352.267 352.14 351.84 349.49C352.347 349.997 352.992 350.343 353.695 350.483C354.398 350.624 355.127 350.553 355.79 350.28C355.7 350.14 355.63 349.99 355.55 349.84L355.79 349.74C354.962 348.279 354.525 346.629 354.52 344.95C354.564 343.418 354.809 341.898 355.25 340.43C356.19 337.18 357.78 334.14 358.67 330.88C359.239 328.775 359.508 326.6 359.47 324.42C359.497 320.726 358.654 317.078 357.01 313.77C356.602 312.818 355.963 311.982 355.15 311.34C354.41 310.93 353.649 310.56 352.87 310.23C351.566 309.351 350.442 308.231 349.56 306.93C345.824 302.382 340.823 299.044 335.19 297.34C333.723 296.795 332.134 296.671 330.6 296.98C327.07 297.98 325.78 302.31 322.92 304.6C320.39 306.6 316.92 306.83 313.76 307.51C310.516 308.062 307.53 309.627 305.23 311.98C303.735 313.689 302.92 315.889 302.94 318.16C302.854 319.22 303.041 320.284 303.484 321.25C303.927 322.217 304.611 323.053 305.47 323.68C306.448 324.323 307.555 324.741 308.714 324.906C309.872 325.07 311.052 324.976 312.17 324.63C311.297 327.646 311.056 330.81 311.464 333.924C311.871 337.037 312.917 340.033 314.537 342.723C316.157 345.413 318.315 347.739 320.876 349.556C323.437 351.373 326.346 352.641 329.42 353.28L330.04 354.38C331.931 357.907 333.366 361.661 334.31 365.55C329.47 368.3 324.18 370.87 320.99 371.11C320.863 372.357 320.633 373.591 320.3 374.8C319.555 377.835 318.121 380.658 316.11 383.05C311.77 387.93 292.24 424.83 292.24 424.83C292.24 424.83 291.62 426.3 290.62 428.83C278.49 430.32 258.7 432.47 253.17 431.36L231.47 410.74C231.47 410.74 224.47 416.09 225.07 422.59L221.16 418.87C221.16 418.87 200.54 434.6 233.1 444.87L282.64 450.62C277.92 464.86 273.52 481.43 274.88 490.45H275.29C276.238 490.448 277.184 490.375 278.12 490.23L278.03 491.83L273.26 577.26C273.26 577.26 272.17 592.99 286.82 600.05C286.82 600.05 304.73 652.68 297.67 658.65C297.67 658.65 298.51 659.09 299.92 659.71L285.19 672.71C285.19 672.71 274.34 675.42 268.37 674.88C267.321 674.737 266.256 674.985 265.378 675.577C264.5 676.169 263.871 677.064 263.61 678.09C263.61 678.2 263.61 678.31 263.55 678.43V678.57C263.55 678.68 263.55 678.8 263.55 678.92C263.55 679.04 263.55 679.01 263.55 679.05C263.55 679.09 263.55 679.25 263.55 679.35V679.48C263.55 679.6 263.55 679.71 263.62 679.83V679.96C263.653 680.087 263.693 680.21 263.74 680.33V680.45C263.79 680.57 263.85 680.69 263.91 680.81V680.89C263.98 681.01 264.05 681.13 264.13 681.25L264.2 681.35C264.287 681.477 264.383 681.603 264.49 681.73L264.57 681.83C264.68 681.96 264.8 682.08 264.93 682.21H264.99L265.39 682.55L265.48 682.62L265.97 682.97L266.09 683.05L266.66 683.38H266.75L267.36 683.68H267.45L268.16 683.97L268.31 684.03L269.1 684.29H269.23L270.08 684.51H270.15L271.15 684.7H271.34L272.34 684.85H272.53L273.68 684.96C275.91 685.13 278.92 685.19 282.4 685.18C282.4 685.18 282.4 685.27 282.4 685.31C282.4 685.35 282.4 685.51 282.4 685.61V685.74C282.4 685.86 282.4 685.97 282.47 686.09V686.22C282.503 686.347 282.543 686.47 282.59 686.59V686.71C282.64 686.83 282.7 686.95 282.76 687.07V687.15C282.83 687.27 282.9 687.39 282.98 687.51L283.05 687.61C283.137 687.737 283.233 687.863 283.34 687.99L283.42 688.09C283.53 688.22 283.65 688.34 283.78 688.47H283.83L284.23 688.81L284.32 688.88L284.81 689.23L284.93 689.31L285.49 689.64H285.58L286.19 689.94H286.28L286.99 690.23L287.14 690.29L287.93 690.55H288.06L288.91 690.77H288.98L289.98 690.96H290.17L291.17 691.11H291.36L292.51 691.22C306.62 692.31 351.65 689.05 351.65 689.05V688.92V688.76C352.1 686.66 354.26 674.45 346.58 665.42C346.81 665.18 347.03 664.93 347.24 664.67C347.24 664.67 341.24 654.36 344.53 651.11C347.82 647.86 328.64 591.93 328.64 591.93C328.64 591.93 318.33 575.65 324.3 557.2C330.27 538.75 323.76 518.68 323.76 518.68C323.76 518.68 338.01 514.46 338.27 496.93C338.27 496.4 338.27 495.85 338.27 495.3C338.568 495.343 338.869 495.364 339.17 495.36C339.37 495.374 339.57 495.374 339.77 495.36C339.77 495.36 337.06 485.59 340.31 478.54C343.56 471.49 350.62 478 357.13 449.24C361.84 428.43 365.98 404.5 367.92 392.85C368.717 388.022 368.308 383.072 366.73 378.44V378.44ZM242.91 439.44L237.96 434.74C239.6 435.42 241.42 436.08 243.45 436.74L262.1 438.93C253.78 439.68 246.01 440.1 242.91 439.47V439.44Z" fill="url(#paint1_linear)"/>
<path d="M290.14 436.7C290.14 436.7 251.76 442.03 243.76 440.43L222.44 420.17C222.44 420.17 202.18 435.63 234.17 445.76L293.87 452.69L290.14 436.7Z" fill="#F8D49F"/>
<path opacity="0.05" d="M290.14 436.7C290.14 436.7 251.76 442.03 243.76 440.43L222.44 420.17C222.44 420.17 202.18 435.63 234.17 445.76L293.87 452.69L290.14 436.7Z" fill="black"/>
<path d="M215.01 450.15L132.07 427.15L113.59 219.85H316.68L298.18 427.12L215.01 450.15Z" fill="#264DE4"/>
<path d="M282.34 413.93L298.15 236.81H215.15V432.52L282.34 413.93Z" fill="#2965F1"/>
<path d="M156.01 313.66L158.29 339.08H215.19V313.66H156.01ZM151.43 262.2L153.74 287.62H215.18V262.2H151.38H151.43ZM215.18 379.69H215.07L186.75 372.04L184.94 351.76H159.37L162.93 391.68L215.01 406.17H215.13L215.18 379.69Z" fill="#EBEBEB"/>
<path d="M161.39 163.49H192.18V176.37H174.26V189.25H192.18V202.13H161.39V163.49ZM198.39 163.49H229.18V174.69H211.22V176.93H229.14V202.69H198.34V190.93H216.26V188.69H198.34V163.49H198.39ZM235.39 163.49H266.18V174.69H248.17V176.93H266.09V202.69H235.29V190.93H253.21V188.69H235.29V163.49H235.39Z" fill="#303030"/>
<path d="M274.15 313.66L278.74 262.2H215.01V287.62H250.84L248.53 313.62H215.01V339.04H246.32L243.32 372.04L215.01 379.71V406.16L267.13 391.71L267.51 387.41L273.51 320.47L274.13 313.64L274.15 313.66Z" fill="white"/>
<path d="M304.01 653.12L285.35 669.64C285.35 669.64 274.69 672.31 268.83 671.77C262.97 671.23 260.3 680.83 274.16 681.9C288.02 682.97 332.26 679.77 332.26 679.77C332.26 679.77 336.52 662.71 323.73 653.12H304.01Z" fill="#47465A"/>
<path opacity="0.05" d="M304.01 653.12L285.35 669.64C285.35 669.64 274.69 672.31 268.83 671.77C262.97 671.23 260.3 680.83 274.16 681.9C288.02 682.97 332.26 679.77 332.26 679.77C332.26 679.77 336.52 662.71 323.73 653.12H304.01Z" fill="black"/>
<path opacity="0.3" d="M332.92 672.4C332.888 674.344 332.664 676.28 332.25 678.18C332.25 678.18 288.01 681.38 274.15 680.31C267.48 679.8 264.65 677.31 264.15 674.93C263.54 677.67 265.96 681.28 274.15 681.93C288.01 683 332.25 679.8 332.25 679.8C332.771 677.369 332.996 674.885 332.92 672.4Z" fill="white"/>
<path d="M325.85 350.93C325.85 350.93 337.58 367.45 333.31 378.65C329.04 389.85 355.7 366.92 355.7 366.92C355.7 366.92 347.17 351.93 351.44 335.93L325.85 350.93Z" fill="#F8D49F"/>
<path d="M322.65 659.52L304.01 676.04C304.01 676.04 293.35 678.71 287.49 678.17C281.63 677.63 278.96 687.23 292.82 688.3C306.68 689.37 350.92 686.17 350.92 686.17C350.92 686.17 355.18 669.11 342.39 659.52H322.65Z" fill="#47465A"/>
<path d="M328.01 655.79C325.23 659.22 321.31 660.54 317.21 660.74C307.89 661.18 297.63 655.79 297.63 655.79C304.56 649.93 286.97 598.22 286.97 598.22C272.58 591.29 273.64 575.83 273.64 575.83L278.3 491.93L279.48 470.85L294.41 461.79L306.17 470.79L317.33 479.35C318.057 482.073 318.526 484.859 318.73 487.67C320.03 507.26 304.54 511.87 304.54 511.87C304.54 511.87 310.94 531.59 305.07 549.72C299.2 567.85 309.33 583.84 309.33 583.84C309.33 583.84 328.52 639.28 325.33 642.48C322.14 645.68 328.01 655.79 328.01 655.79Z" fill="#565171"/>
<path opacity="0.05" d="M328.01 655.79C325.23 659.22 321.31 660.54 317.21 660.74C307.89 661.18 297.63 655.79 297.63 655.79C304.56 649.93 286.97 598.22 286.97 598.22C272.58 591.29 273.64 575.83 273.64 575.83L278.3 491.93L279.48 470.85L294.41 461.79L306.17 470.79L317.33 479.35C318.057 482.073 318.526 484.859 318.73 487.67C320.03 507.26 304.54 511.87 304.54 511.87C304.54 511.87 310.94 531.59 305.07 549.72C299.2 567.85 309.33 583.84 309.33 583.84C309.33 583.84 328.52 639.28 325.33 642.48C322.14 645.68 328.01 655.79 328.01 655.79Z" fill="black"/>
<path d="M346.64 662.18C337.58 673.37 316.26 662.18 316.26 662.18C316.689 661.785 317.01 661.285 317.19 660.73C321.1 650.1 304 599.28 304 599.28C289.61 592.35 288 575.83 288 575.83L284.23 490.41L283.74 479.35L306.17 470.79L313.06 468.16L336.01 485.75C336.995 489.394 337.48 493.155 337.45 496.93C337.16 514.14 323.19 518.3 323.19 518.3C323.19 518.3 329.59 538.02 323.72 556.15C317.85 574.28 328.01 590.22 328.01 590.22C328.01 590.22 347.2 645.66 344.01 648.86C340.82 652.06 346.64 662.18 346.64 662.18Z" fill="#565171"/>
<path opacity="0.1" d="M337.45 496.93C332.84 496.27 323.51 490.72 318.72 487.71C316.89 486.56 315.72 485.79 315.72 485.79C315.72 485.79 310.92 472.46 298.13 482.59C293.969 485.969 289.271 488.626 284.23 490.45C282.305 491.132 280.319 491.631 278.3 491.94L279.48 470.86L294.41 461.8L306.17 470.8L313.06 468.17L336.01 485.75C336.995 489.394 337.48 493.155 337.45 496.93V496.93Z" fill="black"/>
<path d="M366.3 394.64C364.4 406.08 360.3 429.64 355.7 450.03C349.3 478.28 342.37 471.88 339.18 478.81C335.99 485.74 338.65 495.33 338.65 495.33C333.32 495.86 315.73 484.14 315.73 484.14C315.73 484.14 310.93 470.81 298.14 480.94C285.35 491.07 275.22 490.53 275.22 490.53C272.55 472.94 292.28 426.03 292.28 426.03C292.28 426.03 311.47 389.78 315.73 385.03C317.707 382.682 319.116 379.91 319.85 376.93C320.177 375.744 320.405 374.534 320.53 373.31C327.46 372.78 344.53 361.05 344.53 361.05L357.86 358.92V365.85C358.018 365.921 358.166 366.011 358.3 366.12C360.49 367.79 363.3 374.91 365.17 380.52C366.701 385.062 367.089 389.912 366.3 394.64Z" fill="#27409D"/>
<path d="M304.01 444.7L297.12 443.9L244.31 437.77C212.31 427.64 232.58 412.18 232.58 412.18L253.9 432.44C260.05 433.67 284.18 430.8 294.99 429.44C298.23 429.02 300.28 428.74 300.28 428.74L304.01 444.7Z" fill="#F8D49F"/>
<path opacity="0.1" d="M355.7 372.74C355.7 372.74 341.84 361.55 321.01 397.79C300.18 434.03 295.42 428.17 295.42 428.17C295.42 428.17 299.68 444.17 297.55 447.36C297.55 447.36 311.94 446.29 317.27 447.36C322.6 448.43 355.65 406.85 355.65 406.85C355.65 406.85 372.76 383.4 355.7 372.74Z" fill="black"/>
<path opacity="0.1" d="M355.17 370.61C355.17 370.61 341.31 359.42 320.52 395.66C299.73 431.9 294.93 426.04 294.93 426.04C294.93 426.04 311.45 444.16 316.78 445.23C322.11 446.3 355.16 404.72 355.16 404.72C355.16 404.72 372.23 381.27 355.17 370.61Z" fill="black"/>
<path opacity="0.1" d="M297.11 443.93C297.33 439.98 295.84 433.04 294.98 429.44C298.22 429.02 300.27 428.74 300.27 428.74L304 444.74L297.11 443.93Z" fill="black"/>
<path d="M355.7 371.67C355.7 371.67 341.84 360.48 321.01 396.73C300.18 432.98 295.42 427.11 295.42 427.11C295.42 427.11 299.68 443.11 297.55 446.3C297.55 446.3 311.94 445.23 317.27 446.3C322.6 447.37 355.65 405.79 355.65 405.79C355.65 405.79 372.76 382.33 355.7 371.67Z" fill="#27409D"/>
<path opacity="0.1" d="M352.01 337.02L326.38 351.93C327.465 353.503 328.466 355.132 329.38 356.81C330.855 357.109 332.355 357.26 333.86 357.26C340.69 357.26 343.86 350.09 347.99 345.26C347.69 341.42 350.83 341.32 352.01 337.02Z" fill="black"/>
<path d="M333.31 356.22C345.676 356.22 355.7 346.196 355.7 333.83C355.7 321.464 345.676 311.44 333.31 311.44C320.944 311.44 310.92 321.464 310.92 333.83C310.92 346.196 320.944 356.22 333.31 356.22Z" fill="#F8D49F"/>
<path opacity="0.1" d="M305.01 315.72C307.268 313.404 310.202 311.864 313.39 311.32C316.5 310.65 319.91 310.45 322.39 308.46C325.2 306.21 326.46 301.93 329.93 300.97C331.438 300.668 332.999 300.793 334.44 301.33C339.975 303.003 344.89 306.282 348.56 310.75C349.429 312.032 350.535 313.135 351.82 314C352.585 314.324 353.333 314.687 354.06 315.09C354.856 315.723 355.482 316.544 355.88 317.48C358.378 322.527 358.954 328.31 357.5 333.75C356.63 336.96 355.07 339.94 354.14 343.14C353.21 346.34 352.98 349.96 354.67 352.82C353.03 353.66 350.96 352.6 349.93 351.07C348.9 349.54 348.59 347.66 348.05 345.89C346.988 342.415 344.988 339.301 342.27 336.89C340.59 335.41 337.59 334.41 336.42 336.32C335.97 337.06 336 338.01 335.61 338.78C334.85 340.29 332.61 340.59 331.18 339.78C329.772 338.808 328.782 337.34 328.41 335.67C326.22 328.24 322.47 323.57 314.53 326.74C311.53 327.92 308.08 328.74 305.23 326.74C301.58 324.06 302.31 318.75 305.01 315.72Z" fill="black"/>
<path d="M305.01 315.18C307.268 312.864 310.202 311.324 313.39 310.78C316.5 310.11 319.91 309.91 322.39 307.92C325.2 305.67 326.46 301.39 329.93 300.43C331.438 300.128 332.999 300.253 334.44 300.79C339.975 302.463 344.89 305.742 348.56 310.21C349.429 311.492 350.535 312.595 351.82 313.46C352.585 313.784 353.333 314.147 354.06 314.55C354.856 315.183 355.482 316.004 355.88 316.94C358.378 321.987 358.954 327.77 357.5 333.21C356.63 336.42 355.07 339.4 354.14 342.6C353.21 345.8 352.98 349.42 354.67 352.28C353.03 353.12 350.96 352.06 349.93 350.53C348.9 349 348.59 347.12 348.05 345.35C346.988 341.875 344.988 338.761 342.27 336.35C340.59 334.87 337.59 333.87 336.42 335.78C335.97 336.52 336 337.47 335.61 338.24C334.85 339.75 332.61 340.05 331.18 339.24C329.772 338.268 328.782 336.8 328.41 335.13C326.22 327.7 322.47 323.03 314.53 326.2C311.53 327.38 308.08 328.2 305.23 326.2C301.58 323.53 302.31 318.22 305.01 315.18Z" fill="#60595B"/>
<path opacity="0.05" d="M358.27 366.08H347.44C347.44 366.08 326.12 376.74 325.59 376.21C325.23 375.85 321.93 376.47 319.84 376.9C320.167 375.714 320.395 374.504 320.52 373.28C327.45 372.75 344.52 361.02 344.52 361.02L357.85 358.89V365.82C358 365.889 358.141 365.976 358.27 366.08V366.08Z" fill="black"/>
<path opacity="0.3" d="M351.57 678.79C351.538 680.734 351.314 682.67 350.9 684.57C350.9 684.57 306.66 687.77 292.8 686.7C286.13 686.19 283.3 683.7 282.8 681.32C282.19 684.06 284.61 687.67 292.8 688.32C306.66 689.39 350.9 686.19 350.9 686.19C351.421 683.759 351.646 681.275 351.57 678.79Z" fill="white"/>
<g opacity="0.05">
<path opacity="0.05" d="M293.07 480.41C285.88 486.11 279.52 488.41 275.34 489.41C275.34 489.81 275.42 490.2 275.48 490.58C275.48 490.58 285.61 491.11 298.4 480.99C300.382 479.292 302.724 478.068 305.25 477.41C302.46 476.04 298.48 476.13 293.07 480.41Z" fill="black"/>
<path opacity="0.05" d="M365.41 380.47C363.5 374.86 360.73 367.75 358.54 366.07C358.406 365.961 358.258 365.871 358.1 365.8C358.1 365.8 353.69 365.95 353.84 366.07C356.03 367.74 358.17 374.33 360.08 379.93C361.628 384.482 362.026 389.347 361.24 394.09C359.34 405.53 355.24 429.09 350.64 449.48C344.24 477.73 337.31 471.33 334.12 478.26C331.5 483.94 332.81 491.4 333.38 493.91C335.104 494.773 336.993 495.254 338.92 495.32C338.92 495.32 336.25 485.73 339.45 478.8C342.65 471.87 349.58 478.27 355.97 450.02C360.6 429.58 364.67 406.02 366.57 394.63C367.356 389.887 366.958 385.022 365.41 380.47V380.47Z" fill="black"/>
</g>
<path d="M427.36 480.04C429.193 478.546 430.528 476.53 431.19 474.26C431.69 471.96 430.71 469.21 428.51 468.37C426.05 467.43 423.42 469.13 421.43 470.86C419.44 472.59 417.15 474.55 414.54 474.18C415.881 472.964 416.885 471.421 417.453 469.702C418.021 467.983 418.133 466.146 417.78 464.37C417.667 463.634 417.356 462.943 416.88 462.37C415.51 460.91 413.04 461.54 411.4 462.69C406.2 466.35 404.75 473.41 404.72 479.77C404.2 477.48 404.64 475.09 404.62 472.77C404.6 470.45 403.96 467.77 401.98 466.55C400.752 465.89 399.373 465.563 397.98 465.6C395.64 465.51 393.04 465.75 391.44 467.46C389.44 469.58 389.97 473.15 391.7 475.46C393.43 477.77 396.05 479.26 398.47 480.88C400.41 482.033 402.064 483.609 403.31 485.49C403.457 485.751 403.577 486.026 403.67 486.31H418.32C421.602 484.637 424.643 482.528 427.36 480.04V480.04Z" fill="#A3B6FF"/>
</g>
<defs>
<linearGradient id="paint0_linear" x1="804.14" y1="616.78" x2="804.14" y2="278.23" gradientUnits="userSpaceOnUse">
<stop stop-color="#808080" stop-opacity="0.25"/>
<stop offset="0.54" stop-color="#808080" stop-opacity="0.12"/>
<stop offset="1" stop-color="#808080" stop-opacity="0.1"/>
</linearGradient>
<linearGradient id="paint1_linear" x1="58048" y1="306947" x2="58048" y2="150986" gradientUnits="userSpaceOnUse">
<stop stop-color="#808080" stop-opacity="0.25"/>
<stop offset="0.54" stop-color="#808080" stop-opacity="0.12"/>
<stop offset="1" stop-color="#808080" stop-opacity="0.1"/>
</linearGradient>
<clipPath id="clip0">
<rect width="1030.01" height="729.86" fill="white"/>
</clipPath>
</defs>
</svg>
